<svg width="130" height="110" viewBox="0 0 130 110" xmlns="http://www.w3.org/2000/svg" xmlns:xlink="http://www.w3.org/1999/xlink"><title>z-bg04</title><defs><path id="a" d="M0 0h640v517H0z"/><mask id="b" x="-1" y="-1" width="642" height="519"><path fill="#fff" d="M-1-1h642v519H-1z"/><use xlink:href="#a"/></mask><path id="c" d="M0 0h320v138H0z"/><path id="e" d="M0 .364h43.673v74.499H0z"/><path id="g" d="M0 .364h43.673v74.499H0z"/><path id="i" d="M0 .196h23.073v40.157H0z"/><path id="k" d="M0 .196h23.073v40.157H0z"/></defs><g fill="none" fill-rule="evenodd"><path fill="#F3F4F4" d="M-510-261h640v2501h-640z"/><g transform="translate(-510 -262)"><use fill="#FFF" xlink:href="#a"/><use stroke="#E6E8EA" mask="url(#b)" stroke-width="2" xlink:href="#a"/></g><g transform="translate(-190 -28)"><mask id="d" fill="#fff"><use xlink:href="#c"/></mask><use fill="#FFF" xlink:href="#c"/><g mask="url(#d)"><path fill="#08CDB0" d="M268.497 115.027L240.026 138h56.942z"/><path fill-opacity=".15" fill="#1F2023" d="M268.497 115.027L240.026 138h28.47z"/><path fill="#08CDAF" d="M213.653 125.254L196.026 138h35.254z"/><path fill-opacity=".15" fill="#1F2023" d="M213.653 125.254L196.026 138h17.627z"/><path fill="#25D9B2" d="M302.428 108l-35.254 30h70.508z"/><path fill-opacity=".1" fill="#1F2023" d="M302.428 108l-35.254 30h35.254z"/><g><path fill="#25D9B2" d="M250.532 89.809l-1.676.324 2.495 13.027 1.676-.324zM267.922 90.025l-1.691-.228-1.744 12.941 1.69.23z"/><g transform="translate(235.975 38)"><mask id="f" fill="#fff"><use xlink:href="#e"/></mask><path d="M15.27 64.491v6.593h.003c.036.6.866 1.083 1.892 1.083h5.278l3.869-3.838-3.87-3.838H15.27z" fill="#61F1DC" mask="url(#f)"/></g><g transform="translate(235.975 38)"><mask id="h" fill="#fff"><use xlink:href="#g"/></mask><path d="M22.443 64.491v7.676h5.784c1.08 0 1.959-.518 1.959-1.156v-6.52h-7.743z" fill="#25D9B2" mask="url(#h)"/></g><path d="M258.114 36.129c-14.422 0-26.114 9.793-26.114 21.873 0 1.68.231 3.315.66 4.886l-.006.001c.018.068.041.133.063.2.1.354.21.704.332 1.05 5.2 15.999 15.749 26.33 15.749 26.33h9.313l6.157-9.147 3.36-3.402V57.75l-9.514-21.621z" fill="#14E1BF"/><path d="M258.5 36.129c14.424 0 26.114 9.793 26.114 21.873 0 1.68-.235 3.315-.661 4.886l.006.001c-.02.068-.042.133-.062.2-.1.354-.212.704-.332 1.05-5.202 15.999-15.75 26.33-15.75 26.33H258.5v-54.34z" fill="#12D1B4"/><path d="M258.461 36.129c-9.125 0-16.523 9.793-16.523 21.873 0 1.68.148 3.315.42 4.886l-.003.001c.01.068.028.133.037.2.064.354.134.704.212 1.05 3.288 15.999 9.964 26.33 9.964 26.33h5.89l3.896-9.147 2.126-3.402V57.75l-6.019-21.621z" fill="#44EFCA"/><path d="M258.5 36.129c9.125 0 16.521 9.793 16.521 21.873 0 1.68-.149 3.315-.418 4.886l.003.001c-.01.068-.027.133-.038.2-.063.354-.136.704-.211 1.05-3.29 15.999-9.966 26.33-9.966 26.33H258.5v-54.34z" fill="#0BE2B4"/><path d="M242.267 49.714c.31 0 .605.06.889.144l-1.695 6.12a3.18 3.18 0 0 1-2.367-3.073 3.182 3.182 0 0 1 3.173-3.19zm.889.144a3.175 3.175 0 0 1 2.285 3.047 3.182 3.182 0 0 1-3.174 3.19c-.28 0-.547-.048-.806-.117l1.695-6.12z" fill="#EBFAFD"/></g><g opacity=".5"><path fill="#25D9B2" d="M305.79 86.926l-.885.175 1.318 7.022.885-.175zM314.978 87.043l-.894-.123-.921 6.976.893.124z"/><g transform="translate(298.1 59)"><mask id="j" fill="#fff"><use xlink:href="#i"/></mask><path d="M8.067 34.762v3.554h.002c.019.324.457.584 1 .584h2.788l2.044-2.069-2.044-2.069h-3.79z" fill="#61F1DC" mask="url(#j)"/></g><g transform="translate(298.1 59)"><mask id="l" fill="#fff"><use xlink:href="#k"/></mask><path d="M11.857 34.762V38.9h3.055c.571 0 1.035-.279 1.035-.623v-3.515h-4.09z" fill="#25D9B2" mask="url(#l)"/></g><path d="M309.796 61.5c-7.62 0-13.796 4.646-13.796 10.378 0 .797.122 1.573.349 2.318h-.003c.01.033.021.063.033.096.053.167.11.333.175.498 2.747 7.59 8.32 12.492 8.32 12.492h4.92l3.253-4.34 1.775-1.614v-9.57L309.796 61.5z" fill="#45EFCA"/><path d="M310 61.5c7.62 0 13.796 4.646 13.796 10.378 0 .797-.124 1.573-.35 2.318h.004c-.01.033-.022.063-.033.096a8.678 8.678 0 0 1-.175.498c-2.748 7.59-8.32 12.492-8.32 12.492H310V61.5z" fill="#25D9B2"/><path d="M309.98 61.5c-4.821 0-8.73 4.646-8.73 10.378 0 .797.079 1.573.223 2.318h-.002c.005.033.014.063.02.096.033.167.07.333.111.498 1.737 7.59 5.264 12.492 5.264 12.492h3.112l2.058-4.34 1.123-1.614v-9.57L309.98 61.5z" fill="#45EFCA"/><path d="M310 61.5c4.82 0 8.728 4.646 8.728 10.378 0 .797-.079 1.573-.221 2.318h.002c-.006.033-.015.063-.02.096-.034.167-.072.333-.112.498-1.738 7.59-5.265 12.492-5.265 12.492H310V61.5z" fill="#25D9B2"/></g></g></g></g></svg>