<svg width="100" height="120" viewBox="0 0 100 120" xmlns="http://www.w3.org/2000/svg" xmlns:xlink="http://www.w3.org/1999/xlink"><title>z-bg03</title><defs><path id="a" d="M0 0h640v517H0z"/><mask id="b" x="-1" y="-1" width="642" height="519"><path fill="#fff" d="M-1-1h642v519H-1z"/><use xlink:href="#a"/></mask><path id="c" d="M0 0h320v138H0z"/></defs><g fill="none" fill-rule="evenodd"><path fill="#F3F4F4" d="M-220-251h640v2501h-640z"/><g transform="translate(-220 -252)"><use fill="#FFF" xlink:href="#a"/><use stroke="#E6E8EA" mask="url(#b)" stroke-width="2" xlink:href="#a"/></g><g transform="translate(-220 -18)"><mask id="d" fill="#fff"><use xlink:href="#c"/></mask><use fill="#FFF" xlink:href="#c"/><g mask="url(#d)"><g transform="rotate(-20 300.789 -582.862)"><rect fill="#FFBD56" x="1" width="66" height="86" rx="6"/><g transform="translate(19.18 13.974)" stroke="#FFF1DD" stroke-width="2"><circle cx="15.664" cy="15.664" r="15.664"/><path d="M.392 15.664h30.545M16.056 0v30.546M3.731 6.266s4.964 3.268 11.933 3.268c6.97 0 12.359-3.268 12.359-3.268M3.731 25.198s4.964-3.268 11.933-3.268c6.97 0 12.359 3.268 12.359 3.268" stroke-linecap="square"/><path d="M10.077 29.762s-3.793-5.761-3.793-13.85c0-8.09 3.793-14.346 3.793-14.346M21.948 29.762s3.794-5.761 3.794-13.85c0-8.09-3.794-14.346-3.794-14.346" stroke-linecap="square"/></g><text fill="#FFF" transform="translate(9.692 54.417)" font-size="14" font-family=".AppleSystemUIFont"><tspan x=".575" y="14.396">PASSPORT</tspan></text><rect fill-opacity=".3" fill="#C68152" x=".692" y=".417" width="66" height="86" rx="6"/></g></g><circle fill-opacity=".5" fill="#FFDEAA" mask="url(#d)" cx="299" cy="32" r="11"/><g mask="url(#d)"><g transform="translate(259 55)"><rect fill="#FEB749" width="66" height="86" rx="6"/><g transform="translate(16 16)" stroke="#FDF5E7" stroke-width="2"><circle cx="16" cy="16" r="16"/><path d="M.4 16h31.2M16.4 0v31.2M3.81 6.4S8.882 9.738 16 9.738 28.623 6.4 28.623 6.4M3.81 25.738S8.882 22.4 16 22.4s12.623 3.338 12.623 3.338" stroke-linecap="square"/><path d="M10.293 30.4S6.42 24.515 6.42 16.252 10.293 1.6 10.293 1.6M22.419 30.4s3.874-5.885 3.874-14.148S22.42 1.6 22.42 1.6" stroke-linecap="square"/></g><text fill="#FFF" transform="translate(12 57)" font-size="14" font-family=".AppleSystemUIFont"><tspan x="0" y="14">PASSPORT</tspan></text><path d="M63.362 1.032A5.993 5.993 0 0 1 66 5.996v74.008A6 6 0 0 1 59.997 86H6.003a5.974 5.974 0 0 1-3.375-1.038l60.734-83.93z" fill-opacity=".05" fill="#1F2023"/></g></g><path stroke="#FFF" stroke-width="3" stroke-linecap="round" stroke-linejoin="round" mask="url(#d)" d="M294 33.029l4.553 3.493L305 29"/></g></g></svg>