<svg width="150" height="110" viewBox="0 0 150 110" xmlns="http://www.w3.org/2000/svg" xmlns:xlink="http://www.w3.org/1999/xlink"><title>z-bg01</title><defs><path id="a" d="M0 0h640v517H0z"/><mask id="b" x="-1" y="-1" width="642" height="519"><path fill="#fff" d="M-1-1h642v519H-1z"/><use xlink:href="#a"/></mask><path id="c" d="M0 0h320v138H0z"/></defs><g fill="none" fill-rule="evenodd"><path fill="#F3F4F4" d="M-170-122h640v2501h-640z"/><g transform="translate(-170 -123)"><use fill="#FFF" xlink:href="#a"/><use stroke="#E6E8EA" mask="url(#b)" stroke-width="2" xlink:href="#a"/></g><g transform="translate(-170 -28)"><mask id="d" fill="#fff"><use xlink:href="#c"/></mask><use fill="#FFF" xlink:href="#c"/><g mask="url(#d)"><path d="M273.358 40.078l6.358.219c.034-.052.07-.102.111-.15l2.57-3.062a1.5 1.5 0 0 1 2.298 1.928l-1.187 1.414.948.033 7.367-.32s2.738-3.741 5.518-6.576c.886-.903 1.679-1.87 3.111-2.346 1.433-.476 2.48.139 2.48.139l-33.45 39.866-12.019-3.634 2.694-3.21s5.048 1.098 6.577 1.29c1.53.192 3.861 1.132 4.517.35 1.008-1.202 2.61-3.84 5.113-7.173 2.502-3.334 5.554-6.9 5.554-6.9l-29.465-10.334 2.88-2.153 14.218.489 2.217-2.643a1.5 1.5 0 0 1 2.298 1.928l-.708.845z" fill="#4ECFEF"/><path d="M299.42 61.947l-1.32-6.224c.046-.042.089-.087.13-.135l2.568-3.062a1.5 1.5 0 0 0-2.298-1.928l-1.186 1.413-.197-.927-.965-7.31s3.21-3.347 5.518-6.577c.736-1.03 1.55-1.978 1.77-3.471.221-1.494-.567-2.419-.567-2.419l-33.451 39.866 5.665 11.204 2.694-3.21s-1.958-4.78-2.413-6.253c-.455-1.473-1.785-3.606-1.128-4.388 1.008-1.201 3.327-3.237 6.176-6.28 2.848-3.044 5.831-6.668 5.831-6.668L301.539 82.8l1.62-3.21-2.95-13.917 2.218-2.642a1.5 1.5 0 0 0-2.298-1.928l-.709.844z" fill="#41BBD9"/><g transform="translate(175 67)"><rect fill="#4ECFEE" x="37.389" width="32.92" height="69.065" rx="2"/><path fill="#99E3F5" d="M42.327 9.318h23.044v4.385H42.327zM42.327 18.637h23.044v4.385H42.327zM42.327 27.955h23.044v4.385H42.327zM42.327 36.725h23.044v4.385H42.327zM42.327 46.044h23.044v4.385H42.327zM46.717 60.295h13.717v8.77H46.717z"/><g transform="translate(3 26)"><rect fill="#86E3F9" transform="matrix(-1 0 0 1 31.94 0)" x=".261" y=".539" width="31.419" height="42.67" rx="2"/><path fill="#CBF5FF" d="M5.805 8.424h8.317v7.421H5.805zM17.356 8.424h8.317v7.421h-8.317zM5.805 20.019h8.317v7.421H5.805zM17.356 20.019h8.317v7.421h-8.317zM5.805 31.614h8.317v7.421H5.805zM17.356 31.614h8.317v7.421h-8.317z"/></g><g transform="translate(73 41)"><rect fill="#86E3F9" transform="matrix(-1 0 0 1 31.94 0)" x=".261" y=".844" width="31.419" height="27.365" rx="2"/><path fill="#CBF5FF" d="M5.805 5.019h8.317v7.421H5.805zM17.356 5.019h8.317v7.421h-8.317zM5.805 16.614h8.317v7.421H5.805zM17.356 16.614h8.317v7.421h-8.317z"/></g><path fill="#99E3F5" d="M110.911 71.45H.001V65.21h110.91z"/></g></g><path d="M338.173 112.519c0-2.496-2.014-4.519-4.5-4.519H299.5c-2.485 0-4.5 2.023-4.5 4.519v.09c0 2.497 2.015 4.519 4.5 4.519h13.727c1.002 0 1.81.814 1.81 1.82 0 1.04-.808 1.855-1.81 1.855h-.299a3.102 3.102 0 0 0-3.095 3.109v.06a3.102 3.102 0 0 0 3.095 3.11h14.984a3.1 3.1 0 0 0 3.093-3.11v-.06a3.1 3.1 0 0 0-3.093-3.109c-1.05 0-1.86-.814-1.86-1.817 0-1.044.81-1.858 1.811-1.858h5.81c2.486 0 4.5-2.022 4.5-4.52v-.09z" fill-opacity=".25" fill="#5FC6DD" opacity=".553" mask="url(#d)"/></g></g></svg>