<svg width="110" height="116" viewBox="0 0 110 116" xmlns="http://www.w3.org/2000/svg" xmlns:xlink="http://www.w3.org/1999/xlink"><title>z-bg02</title><defs><path id="a" d="M0 0h640v517H0z"/><mask id="b" x="-1" y="-1" width="642" height="519"><path fill="#fff" d="M-1-1h642v519H-1z"/><use xlink:href="#a"/></mask><path id="c" d="M0 0h320v138H0z"/></defs><g fill="none" fill-rule="evenodd"><path fill="#F3F4F4" d="M-530-117h640v2501h-640z"/><g transform="translate(-530 -118)"><use fill="#FFF" xlink:href="#a"/><use stroke="#E6E8EA" mask="url(#b)" stroke-width="2" xlink:href="#a"/></g><g transform="translate(-208.526 -22)"><mask id="d" fill="#fff"><use xlink:href="#c"/></mask><use fill="#FFF" xlink:href="#c"/><g mask="url(#d)"><path d="M336.7 128.524l-.702 1.873-30.63-11.148a2.5 2.5 0 0 0-4.604-1.676l-78.05-28.407a4 4 0 0 1-2.38-5.134l4.786-13.146a6 6 0 1 0 4.104-11.276l4.785-13.147c.757-2.08 3.056-3.155 5.123-2.403l78.049 28.408a2.5 2.5 0 1 0 4.604 1.676l31.072 11.31-.37.983a2.5 2.5 0 1 0-1.723 4.595l-1.08 2.882a2.5 2.5 0 1 0-1.733 4.62l-1.073 2.86a2.5 2.5 0 1 0-1.741 4.642l-1.066 2.84a2.5 2.5 0 1 0-1.748 4.659l-1.06 2.824a2.5 2.5 0 1 0-1.752 4.671l-1.055 2.815a2.5 2.5 0 1 0-1.755 4.679zm-20.98-44.882a2.5 2.5 0 1 0 1.71-4.698 2.5 2.5 0 0 0-1.71 4.698zm-2.736 7.518a2.5 2.5 0 1 0 1.71-4.698 2.5 2.5 0 0 0-1.71 4.698zm-2.736 7.518a2.5 2.5 0 1 0 1.71-4.699 2.5 2.5 0 0 0-1.71 4.699zm-2.736 7.517a2.5 2.5 0 1 0 1.71-4.698 2.5 2.5 0 0 0-1.71 4.698zm-2.736 7.518a2.5 2.5 0 1 0 1.71-4.699 2.5 2.5 0 0 0-1.71 4.699z" fill="#CA6458"/><path d="M324.82 80.57l19.734 7.182-1.71 4.698-19.734-7.182 1.71-4.699zm-4.788 13.155l19.734 7.183-1.71 4.698-19.734-7.182 1.71-4.699zm-5.814 15.975l19.733 7.182-1.71 4.699-19.733-7.183 1.71-4.698zm8.208-22.553l19.734 7.183-1.026 2.819-19.734-7.183 1.026-2.819zm-5.13 14.096l19.733 7.182-1.026 2.82-19.733-7.183 1.026-2.82zm-1.71 4.698l19.733 7.183-1.026 2.819-19.733-7.183 1.026-2.819zm5.472-15.035l19.734 7.183-.684 1.879-19.734-7.183.684-1.879zm-3.078 8.457l19.733 7.183-.342.94-19.733-7.183.342-.94zm-5.814 15.975l19.733 7.183-.684 1.879-19.733-7.182.684-1.88z" fill="#BB5247"/><text font-family="HelveticaNeue-Bold, Helvetica Neue" font-size="16" font-weight="bold" fill="#A94A40" transform="rotate(20 -3.378 688.801)"><tspan x="17" y="22">TICKET</tspan></text><path d="M240.327 70.036l56.382 20.521-1.368 3.759-56.382-20.521 1.368-3.759zm-2.394 6.578l56.382 20.521-1.368 3.759-56.382-20.521 1.368-3.76zm-2.394 6.578l56.382 20.52-1.368 3.76L234.17 86.95l1.368-3.758z" fill="#BA574B"/><path fill-opacity=".08" fill="#1F2023" d="M242.47 49.532l70.476 25.652-13.68 37.587z"/><path d="M347.463 135.874l-.021 2.126h-34.924a2.674 2.674 0 0 0-2.625-2.125 2.674 2.674 0 0 0-2.625 2.125h-89.26a4.001 4.001 0 0 1-4.008-4.002v-15.123c3.55 0 6.429-2.854 6.429-6.375 0-3.52-2.879-6.375-6.429-6.375V91.002c0-2.21 1.79-4.002 4.009-4.002h89.259c-.035.172-.054.35-.054.531 0 1.467 1.2 2.656 2.679 2.656A2.666 2.666 0 0 0 312.518 87h35.428l-.011 1.117a2.712 2.712 0 0 0-.542-.055c-1.48 0-2.679 1.19-2.679 2.657s1.2 2.656 2.679 2.656c.167 0 .331-.015.49-.044l-.032 3.27a2.718 2.718 0 0 0-.458-.039c-1.48 0-2.679 1.19-2.679 2.657s1.2 2.656 2.679 2.656c.138 0 .274-.01.406-.03l-.032 3.243a2.724 2.724 0 0 0-.374-.025c-1.48 0-2.679 1.189-2.679 2.656s1.2 2.656 2.679 2.656c.109 0 .216-.006.322-.019l-.032 3.222a2.731 2.731 0 0 0-.29-.016c-1.48 0-2.679 1.19-2.679 2.657s1.2 2.656 2.679 2.656c.08 0 .16-.003.238-.01l-.032 3.205a2.739 2.739 0 0 0-.206-.008c-1.48 0-2.679 1.19-2.679 2.657s1.2 2.656 2.679 2.656c.052 0 .103-.001.154-.004l-.032 3.194a2.747 2.747 0 0 0-.122-.003c-1.48 0-2.679 1.19-2.679 2.657s1.2 2.656 2.679 2.656h.07zm-37.57-37.186c1.48 0 2.678-1.19 2.678-2.657s-1.199-2.656-2.678-2.656c-1.48 0-2.679 1.19-2.679 2.656 0 1.467 1.2 2.656 2.679 2.656zm0 8.5c1.48 0 2.678-1.19 2.678-2.657s-1.199-2.656-2.678-2.656c-1.48 0-2.679 1.19-2.679 2.656 0 1.467 1.2 2.656 2.679 2.656zm0 8.5c1.48 0 2.678-1.19 2.678-2.657s-1.199-2.656-2.678-2.656c-1.48 0-2.679 1.19-2.679 2.656 0 1.467 1.2 2.656 2.679 2.656zm0 8.5c1.48 0 2.678-1.19 2.678-2.657s-1.199-2.656-2.678-2.656c-1.48 0-2.679 1.19-2.679 2.656 0 1.467 1.2 2.656 2.679 2.656zm0 8.5c1.48 0 2.678-1.19 2.678-2.657s-1.199-2.656-2.678-2.656c-1.48 0-2.679 1.19-2.679 2.656 0 1.467 1.2 2.656 2.679 2.656z" fill="#FD8376"/><path d="M317.929 92.313h22.5v5.312h-22.5v-5.313zm0 14.874h22.5v5.313h-22.5v-5.313zm0 18.063h22.5v5.313h-22.5v-5.313zm0-25.5h22.5v3.188h-22.5V99.75zm0 15.938h22.5v3.187h-22.5v-3.188zm0 5.312h22.5v3.188h-22.5V121zm0-17h22.5v2.125h-22.5V104zm0 9.563h22.5v1.062h-22.5v-1.063zm0 18.062h22.5v2.125h-22.5v-2.125z" fill="#EC8377"/><text font-family="HelveticaNeue-Bold, Helvetica Neue" font-size="16" font-weight="bold" fill="#FFF" transform="translate(214 87)"><tspan x="18.214" y="22.375">TICKET</tspan></text><path d="M229 112.5h64.286v4.25H229v-4.25zm0 7.438h64.286v4.25H229v-4.25zm0 7.437h64.286v4.25H229v-4.25z" fill="#FCB4AC"/><path fill-opacity=".05" fill="#1F2023" d="M223.643 91.25H304v42.5z"/></g></g><path d="M73.474 13.267s8.465 2.89 10.476 9.66c0 0 0-5.953 8.998-9.964 0 0-3.435-1.638-5.745-3.717-2.31-2.08-2.719-3.64-3.253-6.246 0 0-3.301 8.48-10.476 10.267z" fill="#F5877B" opacity=".25"/></g></svg>