<?xml version="1.0" standalone="no"?><!DOCTYPE svg PUBLIC "-//W3C//DTD SVG 1.1//EN" "http://www.w3.org/Graphics/SVG/1.1/DTD/svg11.dtd"><svg t="1512806310115" class="icon" style="" viewBox="0 0 1171 1024" version="1.1" xmlns="http://www.w3.org/2000/svg" p-id="31842" xmlns:xlink="http://www.w3.org/1999/xlink" width="228.7109375" height="200"><defs><style type="text/css"></style></defs><path d="M1153.043299 1000.763506a23.630333 23.630333 0 0 1-23.236494-17.72275 236.30333 236.30333 0 0 0-212.672997-184.710436h-3.54455a23.630333 23.630333 0 0 1-24.024172-23.630333 23.630333 23.630333 0 0 1 24.024172-23.630333h3.54455a207.159252 207.159252 0 0 0 43.716116-409.592438 328.06779 328.06779 0 0 1 8.664455 73.254032c0 173.682947-122.090054 315.071106-225.66968 333.187695 140.206642-20.085783 239.84788 275.687218 196.919442 275.687218H292.111501a23.630333 23.630333 0 0 1-15.359717-29.144077 393.838883 393.838883 0 0 1 226.851197-266.235085 336.732245 336.732245 0 0 1-220.155936-315.071106 328.06779 328.06779 0 0 1 8.270617-73.254033 207.159252 207.159252 0 0 0 44.109955 409.592439h3.54455a23.630333 23.630333 0 0 1 24.024171 23.630333 23.630333 23.630333 0 0 1-24.024171 23.236494h-4.332228A236.30333 236.30333 0 0 0 121.579264 984.616112a24.024172 24.024172 0 0 1-23.236494 17.328911h-5.907583a23.236494 23.236494 0 0 1-17.328911-28.3564 298.529873 298.529873 0 0 1 157.535553-196.919442A254.02608 254.02608 0 0 1 306.2897 290.672a346.184378 346.184378 0 0 1 639.988185 0 254.02608 254.02608 0 0 1 72.466355 485.209504M689.101095 590.777229a194.162569 194.162569 0 0 1-24.024172 6.301422 179.98437 179.98437 0 0 1-39.383888 4.332228 196.919441 196.919441 0 0 1-39.383889-4.332228 192.587214 192.587214 0 0 1-73.254032-31.507111 11.421328 11.421328 0 0 1-2.756872-16.541233 12.209005 12.209005 0 0 1 16.935072-2.363033 168.563042 168.563042 0 0 0 63.014221 27.962561 174.470625 174.470625 0 0 0 70.49716 0 160.292425 160.292425 0 0 0 20.873461-5.907584 167.775364 167.775364 0 0 0 95.702848-83.493843 12.209005 12.209005 0 0 1 16.147395-5.513744 11.421328 11.421328 0 0 1 5.513744 15.753555A191.799536 191.799536 0 0 1 689.101095 590.777229z" fill="#78C3FD" p-id="31843"></path><path d="M259.029035 719.956382a254.813757 254.813757 0 0 1-28.3564-508.445998 24.024172 24.024172 0 0 1 26.387205 20.873461 23.630333 23.630333 0 0 1-19.691944 25.599528 207.94693 207.94693 0 0 0 23.236494 415.106182 23.236494 23.236494 0 1 1 0 46.866827z m814.852648 202.039347a23.630333 23.630333 0 0 1-23.236494-17.722749 236.30333 236.30333 0 0 0-216.611385-185.104275 23.630333 23.630333 0 1 1 0-46.866827 281.98864 281.98864 0 0 1 263.084373 220.155935 23.236494 23.236494 0 0 1-17.32891 28.3564h-5.907584z" fill="#333333" p-id="31844"></path><path d="M834.427643 719.956382a23.630333 23.630333 0 1 1 0-46.866827 207.94693 207.94693 0 0 0 23.236494-415.106182 23.630333 23.630333 0 0 1-21.2673-25.993367 23.630333 23.630333 0 0 1 26.387205-20.87346 254.813757 254.813757 0 0 1-28.750238 508.445997z m39.383888 224.882003a23.630333 23.630333 0 0 1-23.236494-17.328911 357.211867 357.211867 0 0 0-139.025126-202.433186 22.842655 22.842655 0 0 1-5.513744-32.688627 24.418011 24.418011 0 0 1 33.476305-5.513745 404.472533 404.472533 0 0 1 157.535553 228.820391 23.630333 23.630333 0 0 1-16.935072 28.750239zM219.645146 945.232223H213.737563a23.236494 23.236494 0 0 1-15.753555-29.537916 378.479167 378.479167 0 0 1 330.036984-290.259257 24.024172 24.024172 0 0 1 25.599527 21.661139 23.630333 23.630333 0 0 1-22.448816 24.81185 330.430823 330.430823 0 0 0-286.714707 255.601435 24.024172 24.024172 0 0 1-24.81185 17.722749z m327.280112-421.801443a196.919441 196.919441 0 0 1-39.383888-4.332228 192.587214 192.587214 0 0 1-73.254033-32.294788 11.421328 11.421328 0 0 1-2.756872-16.541233 12.209005 12.209005 0 0 1 16.935072-2.363034 168.563042 168.563042 0 0 0 63.014221 27.962561 174.864464 174.864464 0 0 0 70.497161 0 160.292425 160.292425 0 0 0 20.87346-5.907583 167.775364 167.775364 0 0 0 95.702849-83.493844 12.209005 12.209005 0 0 1 16.147394-5.513744 11.421328 11.421328 0 0 1 5.513744 15.753555 191.405697 191.405697 0 0 1-133.117542 102.004271 179.196692 179.196692 0 0 1-39.383888 4.332228z" fill="#333333" p-id="31845"></path><path d="M546.925258 672.301878a340.276795 340.276795 0 0 1-343.821345-335.944568A340.276795 340.276795 0 0 1 546.925258 0.018904a340.276795 340.276795 0 0 1 343.821345 336.338406 340.276795 340.276795 0 0 1-343.821345 335.944568z m0-625.416147a293.016129 293.016129 0 0 0-295.773001 289.471579 293.016129 293.016129 0 0 0 295.773001 289.471579 293.016129 293.016129 0 0 0 295.773001-289.471579 293.016129 293.016129 0 0 0-296.16684-289.471579z" fill="#333333" p-id="31846"></path></svg>