<?xml version="1.0" encoding="UTF-8"?>
<svg width="1023px" height="922px" viewBox="0 0 1023 922" version="1.1" xmlns="http://www.w3.org/2000/svg" xmlns:xlink="http://www.w3.org/1999/xlink">
    <!-- Generator: Sketch 45.2 (43514) - http://www.bohemiancoding.com/sketch -->
    <title>info</title>
    <desc>Created with Sketch.</desc>
    <defs></defs>
    <g id="Page-1" stroke="none" stroke-width="1" fill="none" fill-rule="evenodd">
        <g id="info" fill-rule="nonzero">
            <path d="M925.2864,477.0768 L201.8304,477.0768 C150.188351,477.161567 108.384998,519.079513 108.4416,570.7216 L131.7888,828.1552 C131.7888,879.8672 173.568,921.7488 225.1264,921.7488 L901.9904,921.7488 C926.785812,921.721657 950.554885,911.845678 968.068686,894.29347 C985.582486,876.741262 995.406373,852.950612 995.3792,828.1552 L1018.7264,570.7216 C1018.75472,519.07122 976.936718,477.161558 925.2864,477.0768 Z" id="Shape" fill="#C6E4FF"></path>
            <path d="M183.6032,105.416 C183.6032,76.3856 207.104,52.8336 236.0832,52.8336 L786.8928,52.8336 C815.872,52.8336 839.3728,76.3856 839.3728,105.416 L878.6944,368.4304 L929.28,368.4304 L891.8016,105.4672 C891.855963,77.594047 880.832005,50.8416564 861.15631,31.098743 C841.480614,11.3558296 814.765976,0.240697286 786.8928,0.2 L236.0832,0.2 C178.1248,0.2 131.1232,47.304 131.1232,105.4672 L93.696,368.4304 L144.2816,368.4304 L183.6032,105.416 Z M236.0832,302.6896 C236.054876,324.442928 253.651527,342.108316 275.4048,342.1648 L747.52,342.1648 C769.273273,342.108316 786.869924,324.442928 786.8416,302.6896 C786.8416,280.9296 769.2288,289.5312 747.52,289.5312 L275.4048,289.5312 C253.696,289.5312 236.0832,280.8784 236.0832,302.6896 Z M721.3056,210.632 C743.058873,210.575516 760.655524,192.910128 760.6272,171.1568 C760.6272,149.3968 742.9632,157.9984 721.3056,157.9984 L301.6704,157.9984 C279.9616,157.9984 262.3488,149.3968 262.3488,171.1568 C262.320476,192.910128 279.917127,210.575516 301.6704,210.632 L721.3056,210.632 Z M918.016,421.064 L104.9088,421.064 C46.9504,421.064 0,468.168 0,526.3312 L26.2656,815.6624 C26.2656,873.7744 73.2672,920.8784 131.1744,920.8784 L891.8528,920.8784 C949.8112,920.8784 996.7616,873.7744 996.7616,815.6624 L1022.976,526.3312 C1023.01677,498.453331 1011.98141,471.701075 992.297584,451.959639 C972.613759,432.218204 945.893869,421.104708 918.016,421.064 L918.016,421.064 Z M944.2816,815.6624 C944.2816,844.6928 920.7808,868.2448 891.8016,868.2448 L131.1232,868.2448 C102.1952,868.2448 78.6944,844.6928 78.6944,815.6624 L52.4288,526.28 C52.4288,497.2496 75.9296,473.6976 104.9088,473.6976 L918.016,473.6976 C946.9952,473.6976 970.496,497.2496 970.496,526.28 L944.2816,815.6624 L944.2816,815.6624 Z M655.7184,723.5536 C655.746724,701.800272 638.150073,684.134884 616.3968,684.0784 L406.528,684.0784 C384.726449,684.0784 367.0528,701.752049 367.0528,723.5536 C367.0528,745.355151 384.726449,763.0288 406.528,763.0288 L616.3968,763.0288 C638.150073,762.972316 655.746724,745.306928 655.7184,723.5536 L655.7184,723.5536 Z" id="Shape" fill-opacity="0.7" fill="#389EFB"></path>
        </g>
    </g>
</svg>