<?xml version="1.0" standalone="no"?><!DOCTYPE svg PUBLIC "-//W3C//DTD SVG 1.1//EN" "http://www.w3.org/Graphics/SVG/1.1/DTD/svg11.dtd"><svg t="1512808579602" class="icon" style="" viewBox="0 0 1024 1024" version="1.1" xmlns="http://www.w3.org/2000/svg" p-id="64336" xmlns:xlink="http://www.w3.org/1999/xlink" width="200" height="200"><defs><style type="text/css"></style></defs><path d="M925.2864 528.0768H201.8304a93.5424 93.5424 0 0 0-93.3888 93.6448l23.3472 257.4336c0 51.712 41.7792 93.5936 93.3376 93.5936h676.864a93.4912 93.4912 0 0 0 93.3888-93.5936l23.3472-257.4336a93.5936 93.5936 0 0 0-93.44-93.6448z" fill="#C6E4FF" p-id="64337"></path><path d="M183.6032 156.416c0-29.0304 23.5008-52.5824 52.48-52.5824h550.8096c28.9792 0 52.48 23.552 52.48 52.5824l39.3216 263.0144h50.5856l-37.4784-262.9632A105.0624 105.0624 0 0 0 786.8928 51.2H236.0832c-57.9584 0-104.96 47.104-104.96 105.2672L93.696 419.4304h50.5856l39.3216-263.0144z m52.48 197.2736a39.424 39.424 0 0 0 39.3216 39.4752H747.52a39.424 39.424 0 0 0 39.3216-39.4752c0-21.76-17.6128-13.1584-39.3216-13.1584H275.4048c-21.7088 0-39.3216-8.6528-39.3216 13.1584z m485.2224-92.0576a39.424 39.424 0 0 0 39.3216-39.4752c0-21.76-17.664-13.1584-39.3216-13.1584H301.6704c-21.7088 0-39.3216-8.6016-39.3216 13.1584a39.424 39.424 0 0 0 39.3216 39.4752h419.6352z m196.7104 210.432H104.9088C46.9504 472.064 0 519.168 0 577.3312l26.2656 289.3312c0 58.112 47.0016 105.216 104.9088 105.216h760.6784c57.9584 0 104.9088-47.104 104.9088-105.216l26.2144-289.3312a105.1136 105.1136 0 0 0-104.96-105.2672z m26.2656 394.5984c0 29.0304-23.5008 52.5824-52.48 52.5824H131.1232c-28.928 0-52.4288-23.552-52.4288-52.5824l-26.2656-289.3824c0-29.0304 23.5008-52.5824 52.48-52.5824H918.016c28.9792 0 52.48 23.552 52.48 52.5824l-26.2144 289.3824z m-288.5632-92.1088a39.424 39.424 0 0 0-39.3216-39.4752H406.528a39.424 39.424 0 1 0 0 78.9504h209.8688a39.424 39.424 0 0 0 39.3216-39.4752z" fill="#389EFB" p-id="64338"></path></svg>