<?xml version="1.0" encoding="UTF-8"?>
<svg width="1024px" height="792px" viewBox="0 0 1024 792" version="1.1" xmlns="http://www.w3.org/2000/svg" xmlns:xlink="http://www.w3.org/1999/xlink">
    <!-- Generator: Sketch 45.2 (43514) - http://www.bohemiancoding.com/sketch -->
    <title>mail</title>
    <desc>Created with Sketch.</desc>
    <defs></defs>
    <g id="Page-1" stroke="none" stroke-width="1" fill="none" fill-rule="evenodd">
        <g id="mail" fill-rule="nonzero">
            <path d="M967.112,791.72 L106.552,791.72 C47.8,791.72 0,743.918 0,685.166 L0,106.834 C0,48.082 47.8,0.28 106.552,0.28 L917.446,0.28 C976.198,0.28 1023.998,48.08 1023.998,106.832 L1023.998,552.446 C1023.998,568.156 1011.264,580.89 995.554,580.89 C979.844,580.89 967.11,568.156 967.11,552.446 L967.11,106.834 C967.11,79.45 944.83,57.17 917.446,57.17 L106.552,57.17 C79.168,57.17 56.888,79.45 56.888,106.834 L56.888,685.166 C56.888,712.55 79.168,734.83 106.552,734.83 L967.11,734.83 C982.82,734.83 995.554,747.564 995.554,763.274 C995.554,778.984 982.822,791.72 967.112,791.72 Z" id="Shape" fill-opacity="0.7" fill="#4A90E2"></path>
            <path d="M995.556,106.834 L512,473.084 L28.444,106.834 C28.444,63.696 63.414,28.726 106.552,28.726 L917.446,28.726 C960.586,28.726 995.556,63.694 995.556,106.834 Z" id="Shape" fill-opacity="0.8" fill="#CEE8FA"></path>
            <path d="M512,501.528 C505.952,501.528 499.906,499.606 494.826,495.76 L11.27,129.51 C4.17090827,124.132168 2.79157305e-05,115.740075 0,106.834 C-3.15836246e-15,48.082 47.8,0.28 106.552,0.28 L917.446,0.28 C976.198,0.28 1023.998,48.08 1023.998,106.832 C1023.998,115.738 1019.828,124.13 1012.728,129.508 L529.174,495.76 C524.232327,499.505598 518.200776,501.531334 512,501.528 Z M58.576,93.974 L512,437.4 L965.424,93.974 C959.744,72.802 940.388,57.17 917.446,57.17 L106.552,57.17 C83.616,57.17 64.256,72.802 58.576,93.974 Z M967.088,791.324 C961.104,791.324 955.074,789.444 949.936,785.552 L750.824,634.742 C738.3,625.258 735.836,607.416 745.322,594.894 C754.808,582.37 772.648,579.906 785.17,589.392 L984.282,740.202 C996.806,749.686 999.27,767.528 989.784,780.05 C984.407872,787.162385 976.003638,791.3371 967.088,791.324 L967.088,791.324 Z M69.048,782.13 C60.1327859,782.143261 51.7287491,777.969384 46.352,770.858 C36.868,758.336 39.33,740.494 51.854,731.01 L238.828,589.394 C251.35,579.914 269.19,582.372 278.676,594.896 C288.16,607.418 285.698,625.26 273.174,634.744 L86.204,776.36 C81.2701375,780.107593 75.2437595,782.134418 69.048,782.13 Z" id="Shape" fill-opacity="0.7" fill="#4A90E2"></path>
        </g>
    </g>
</svg>