<?xml version="1.0" encoding="UTF-8"?>
<svg width="1059px" height="1044px" viewBox="0 0 1059 1044" version="1.1" xmlns="http://www.w3.org/2000/svg" xmlns:xlink="http://www.w3.org/1999/xlink">
    <!-- Generator: Sketch 45.2 (43514) - http://www.bohemiancoding.com/sketch -->
    <title>net</title>
    <desc>Created with Sketch.</desc>
    <defs></defs>
    <g id="Page-1" stroke="none" stroke-width="1" fill="none" fill-rule="evenodd">
        <g id="net" transform="translate(10.000000, 9.000000)">
            <path d="M519,0 C235.064,0 7,228.096 7,512 C7,795.904 235.096,1024 519,1024 C802.904,1024 1031,795.904 1031,512 C1031,228.096 802.936,0 519,0 Z M384.024,656.32 C367.736,567.872 407.288,553.92 470.136,553.92 C532.984,553.92 528.312,572.512 577.176,614.432 L577.208,614.432 C626.072,656.32 600.472,698.208 574.872,730.784 C549.272,763.36 528.312,800.576 516.696,865.76 C505.048,930.944 472.472,884.416 463.16,868.096 C453.848,851.808 437.56,835.52 442.2,770.336 C446.84,705.152 400.312,744.736 384.024,656.32 Z M332.792,546.912 C363.064,577.184 337.464,574.848 337.464,574.848 C204.824,512 183.864,460.8 183.864,460.8 C183.864,460.8 142.04,421.248 135,342.112 C160.6,281.6 197.848,230.4 246.712,190.848 C272.312,216.448 307.224,244.352 321.176,249.024 C342.072,258.336 356.12,204.928 388.696,216.512 C421.272,228.096 414.328,207.168 453.848,209.472 C493.368,211.808 470.072,253.696 446.808,265.312 C423.544,276.96 367.672,262.976 414.232,309.536 C460.792,356.096 437.528,279.296 493.368,279.296 C549.208,279.296 558.52,300.256 563.192,328.16 C567.832,356.064 535.288,360.736 498.04,377.024 C460.792,393.312 407.288,428.224 404.952,460.8 L404.92,460.8 C402.584,495.712 372.312,518.976 363.032,481.76 C353.72,444.512 342.104,444.512 307.192,463.136 C272.28,481.76 302.488,516.64 332.792,546.912 L332.792,546.912 Z M777.336,609.76 C793.624,600.448 835.512,626.048 826.2,653.984 C816.888,681.92 788.952,665.632 775,653.984 C761.048,642.336 761.048,619.072 777.336,609.76 Z M753.784,465.44 C723.544,379.328 763.064,381.664 770.072,328.128 C772.376,302.496 753.784,297.888 728.184,307.168 C670.008,330.432 651.384,321.12 639.736,279.232 C628.088,237.344 639.736,225.696 639.736,225.696 C600.184,230.336 597.848,183.808 618.776,172.16 C632.728,162.848 644.376,139.584 656.024,120.96 C696.002433,133.983834 733.12599,154.52235 765.4,181.472 L767.736,181.472 C777.048,188.448 783.96,193.056 791,200.096 C793.336,200.096 793.336,202.432 795.672,202.432 C816.082236,220.86719 834.77263,241.121364 851.512,262.944 C853.848,265.216 856.184,269.888 858.552,272.256 C863.16,276.928 865.56,283.904 870.2,288.544 C874.808,293.184 877.208,297.856 879.512,302.496 C881.784,307.168 886.488,314.112 888.824,318.784 C891.096,325.76 895.8,330.368 898.136,337.408 L905.176,351.36 C909.784,360.672 912.12,372.32 916.824,383.936 C916.824,388.544 919.16,390.88 919.16,395.584 C921.496,404.896 923.832,411.872 926.2,421.184 C926.2,425.824 928.536,430.464 928.536,435.136 C931.64,443.296 933.24,452 933.208,460.736 C935.544,465.344 935.544,467.68 935.544,472.384 L935.384,472.384 C937.72,486.336 937.72,497.984 935.384,516.608 C935.384,528.256 933.048,542.208 933.048,553.856 C930.712,558.464 930.712,560.8 930.712,565.504 C928.376,574.816 928.376,581.792 926.04,591.104 C926.04,595.744 923.704,600.384 923.704,605.056 C921.432,614.368 916.728,626.016 914.392,637.632 C884.152,621.344 846.904,602.72 837.592,579.456 C818.968,537.6 772.408,518.976 753.784,465.44 L753.784,465.44 Z" id="Shape" fill="#82C7FF" fill-rule="nonzero"></path>
            <ellipse id="Oval" stroke="#0076FF" stroke-width="20" cx="519.5" cy="513" rx="519.5" ry="512"></ellipse>
        </g>
    </g>
</svg>