<?xml version="1.0" encoding="UTF-8"?>
<svg width="913px" height="1016px" viewBox="0 0 913 1016" version="1.1" xmlns="http://www.w3.org/2000/svg" xmlns:xlink="http://www.w3.org/1999/xlink">
    <!-- Generator: Sketch 45.2 (43514) - http://www.bohemiancoding.com/sketch -->
    <title>safe</title>
    <desc>Created with Sketch.</desc>
    <defs></defs>
    <g id="Page-1" stroke="none" stroke-width="1" fill="none" fill-rule="evenodd">
        <g id="safe" fill-rule="nonzero">
            <path d="M25.113714,110.984461 L25.113714,631.302559 C25.113714,631.302559 36.511444,873.356426 464.417645,990.645803 C464.417645,990.645803 816.068293,913.036489 887.868506,638.328749 C887.96727,637.763102 887.868506,110.979473 887.868506,110.979473 L465.768413,24.987216 L25.111719,110.983463 L25.113714,110.984461 Z" id="Shape" fill="#BAD4FF"></path>
            <path d="M463.782166,1015.88142 L457.944134,1014.27527 C17.93489,893.666832 1.138078,643.064418 0.641267,632.453805 L0.614331,90.799754 L465.875158,0 L912.380858,90.965358 L912.385846,110.979473 C912.48461,639.824171 912.48461,639.824171 912.038677,642.424948 C880.493152,763.486299 793.880379,865.290724 661.110043,938.935523 C562.238601,993.774317 473.432077,1013.75252 469.707988,1014.58153 L463.782166,1015.88142 Z M49.619083,630.488507 C50.033092,635.271064 55.784332,689.560173 106.349352,755.50739 C155.287264,819.335676 257.132591,907.249336 464.801726,965.326381 C509.222446,953.949601 799.493949,870.98909 863.379099,635.084511 C863.435963,602.165273 863.399051,305.842249 863.369123,131.003564 L465.667655,49.97543 L49.617088,131.169168 L49.617088,630.488507 L49.619083,630.488507 Z" id="Shape" fill-opacity="0.7" fill="#4A90E2"></path>
            <path d="M92.750887,153.467816 L456.518544,81.577819 L456.518544,463.804312 L92.750887,463.804312 L92.750887,153.467816 Z M459.109346,463.80531 L823.250111,463.80531 L823.250111,638.202052 C823.250111,638.202052 805.107519,832.477233 459.379699,928.153321 L459.110343,463.804312 L459.109346,463.80531 Z" id="Shape" fill="#FFFFFF"></path>
        </g>
    </g>
</svg>