<?xml version="1.0" encoding="UTF-8"?>
<svg width="913px" height="1016px" viewBox="0 0 913 1016" version="1.1" xmlns="http://www.w3.org/2000/svg" xmlns:xlink="http://www.w3.org/1999/xlink">
    <!-- Generator: Sketch 45.2 (43514) - http://www.bohemiancoding.com/sketch -->
    <title>Shape</title>
    <desc>Created with Sketch.</desc>
    <defs></defs>
    <g id="Page-1" stroke="none" stroke-width="1" fill="none" fill-rule="evenodd" fill-opacity="0.8">
        <g id="safe" fill-rule="nonzero" fill="#4E8CEE">
            <path d="M463.782166,1015.88142 L457.944134,1014.27527 C17.93489,893.666832 1.138078,643.064418 0.641267,632.453805 L0.614331,631.297571 L0.614331,90.799754 L465.875158,0 L912.380858,90.965358 L912.385846,110.979473 C912.48461,639.824171 912.48461,639.824171 912.038677,642.424948 L911.588753,644.528914 C880.493152,763.486299 793.880379,865.290724 661.110043,938.935523 C562.238601,993.774317 473.432077,1013.75252 469.707988,1014.58153 L463.782166,1015.88142 Z M49.619083,630.488507 C50.033092,635.271064 55.784332,689.560173 106.349352,755.50739 C155.287264,819.335676 257.132591,907.249336 464.801726,965.326381 C509.222446,953.949601 799.493949,870.98909 863.379099,635.084511 C863.435963,602.165273 863.399051,305.842249 863.369123,131.003564 L465.667655,49.97543 L49.617088,131.169168 L49.617088,630.488507 L49.619083,630.488507 Z" id="Shape"></path>
        </g>
    </g>
</svg>