<?xml version="1.0" encoding="UTF-8"?>
<svg width="946px" height="890px" viewBox="0 0 946 890" version="1.1" xmlns="http://www.w3.org/2000/svg" xmlns:xlink="http://www.w3.org/1999/xlink">
    <!-- Generator: Sketch 45.2 (43514) - http://www.bohemiancoding.com/sketch -->
    <title>4</title>
    <desc>Created with Sketch.</desc>
    <defs></defs>
    <g id="Page-1" stroke="none" stroke-width="1" fill="none" fill-rule="evenodd">
        <g id="4" fill-rule="nonzero">
            <path d="M645.352165,578.372688 C629.471704,589.410172 609.720956,603.160952 582.147723,620.003865 C550.007963,639.457686 497.503123,602.464709 495.424636,601.010793 C494.922932,600.703627 445.008523,569.127004 410.155467,534.202275 C375.363844,499.420891 343.357188,449.465526 341.954465,447.387038 C341.575627,446.875095 304.562173,394.431689 324.149099,362.64005 C340.971535,335.292073 354.671121,315.664191 365.688127,299.906596 C396.097521,256.360753 411.363651,234.500801 382.182919,182.10859 C281.145915,2.39623822 204.620726,-7.44329978 168.006587,2.73412022 C89.7715093,24.5428772 28.8298553,155.262317 64.3893923,297.531182 C99.0786273,436.666959 173.504851,568.850554 274.091346,669.87732 C375.2205,770.095216 507.762455,844.378096 647.246352,879.057091 C675.976574,886.214049 704.215331,889.480244 731.184471,889.480244 C838.293115,889.480244 925.405278,838.09144 942.790851,775.634435 C952.80445,738.989579 942.678224,662.720362 762.781572,562.246494 C710.532704,532.901941 688.775141,548.106638 645.352165,578.372688 Z M890.828671,761.023591 C878.019866,806.811743 779.67568,856.193732 660.433995,826.542013 C530.226498,794.166759 406.571868,724.859961 312.374418,631.553292 C218.709388,537.437753 149.279725,414.121004 116.904471,284.282106 C87.2015583,165.398781 136.808802,67.1979392 182.586714,54.4300902 C182.934835,54.3277012 184.532096,53.9488642 187.317064,53.9488642 C202.828927,53.9488642 255.200661,66.0511892 335.114911,208.166471 C347.862283,231.050308 347.862283,231.050308 321.456281,268.862393 C310.633813,284.3333 295.83867,305.537965 278.207365,334.216993 C239.105184,397.708122 296.19703,475.9432 297.53832,477.663328 C298.981998,479.905637 332.964752,533.024808 371.99526,572.034838 C411.076963,611.208691 464.441866,644.955951 465.066437,645.273355 C468.373587,647.710202 546.721292,704.392494 610.376242,665.802256 C639.403391,648.068562 660.761639,633.211986 676.345173,622.348563 C713.788659,596.311159 713.809137,596.311159 736.437003,609.027815 C870.453353,683.873832 896.541951,739.747254 890.828671,761.023591 Z" id="Shape" fill-opacity="0.2" fill="#3B87EF"></path>
            <path d="M628.367435,798.552786 C614.407342,801.783259 597.044983,805.807865 572.806084,810.737482 C544.552872,816.431266 498.397258,805.604087 496.570115,805.178552 C496.12908,805.08865 452.250645,795.846741 421.612247,785.624901 C391.027852,775.445016 362.891649,760.823979 361.658552,760.215643 C361.325526,760.065807 328.787978,744.716566 346.006326,735.411725 C360.794484,727.407464 372.837428,721.662736 382.522186,717.050772 C409.254279,704.305687 422.674329,697.907673 397.02232,682.573415 C308.203366,629.974844 240.932099,627.094988 208.745579,630.073736 C139.971194,636.456767 86.3990002,674.715994 117.658447,716.355531 C148.152835,757.078069 213.578958,795.765829 302.001881,825.334545 C390.901842,854.66652 507.415965,876.407782 630.032564,886.5577 C655.288542,888.652413 680.112485,889.608369 703.820342,889.608369 C797.976714,889.608369 874.55471,874.567791 889.837906,856.28775 C898.640596,845.56246 889.738899,823.239832 731.596517,793.832939 C685.66592,785.244317 666.539423,789.694458 628.367435,798.552786 Z M844.15933,852.011419 C832.899449,865.412787 746.447679,879.866006 641.625472,871.187482 C527.16351,861.711827 418.462,841.426975 335.655516,814.117792 C253.317069,786.571867 192.283291,750.479274 163.823063,712.477765 C137.712018,677.682755 181.320433,648.941136 221.562583,645.204216 C221.868607,645.174249 223.272717,645.06337 225.720908,645.06337 C239.356976,645.06337 285.395581,648.605503 355.646081,690.200088 C366.851958,696.897776 366.851958,696.897776 343.639141,707.964692 C334.125396,712.492748 321.119378,718.698972 305.620165,727.092808 C271.246473,745.675519 321.434403,768.573518 322.613495,769.076969 C323.882594,769.733252 353.755933,785.280278 388.066619,796.697811 C422.422309,808.163293 469.333982,818.040509 469.883026,818.133407 C472.790254,818.846629 541.663647,835.436516 597.621027,824.141847 C623.138025,818.951514 641.913495,814.603262 655.612567,811.423733 C688.528144,803.803054 688.546146,803.803054 708.437704,807.52499 C826.247928,829.431072 849.181723,845.784218 844.15933,852.011419 Z" id="Shape" fill-opacity="0.1" fill="#3B87EF"></path>
            <path d="M709.317708,562.507223 C657.06884,533.16267 635.311277,548.367367 591.888301,578.633417 C576.00784,589.670901 556.257092,603.421681 528.683859,620.264594 C496.544099,639.718415 444.039259,602.725438 441.960772,601.271522 C441.459068,600.964356 391.544659,569.387733 356.691603,534.463004 C321.89998,499.68162 289.893324,449.726255 288.490601,447.647767 C288.111763,447.135824 251.098309,394.692418 270.685235,362.900779 C287.507671,335.552802 301.207257,315.92492 312.224263,300.167325 C342.633657,256.621482 357.899787,234.76153 328.719055,182.369319 C227.682051,2.656967 151.156862,-7.182571 114.542723,2.994849 C36.307645,24.803606 -24.634009,155.523046 10.925528,297.791911 C45.614763,436.927688 120.040987,569.111283 220.627482,670.138049 C321.756636,770.355945 454.298591,844.638825 593.782488,879.31782 C622.51271,886.474778 650.751467,889.740973 677.720607,889.740973 C784.829251,889.740973 871.941414,838.352169 889.326987,775.895164 L889.367943,775.772298 C899.340586,739.250308 889.21436,662.981091 709.317708,562.507223 L709.317708,562.507223 Z M837.364807,761.28432 C824.556002,807.072472 726.211816,856.454461 606.970131,826.802742 C476.762634,794.427488 353.108004,725.12069 258.910554,631.814021 C165.245524,537.698482 95.815861,414.381733 63.440607,284.542835 C33.737694,165.65951 83.344938,67.458668 129.12285,54.690819 C129.470971,54.58843 131.068232,54.209593 133.8532,54.209593 C149.365063,54.209593 201.736797,66.311918 281.651047,208.4272 C294.398419,231.311037 294.398419,231.311037 267.992417,269.123122 C257.169949,284.594029 242.374806,305.798694 224.743501,334.477722 C185.64132,397.968851 242.733166,476.203929 244.074456,477.924057 C245.518134,480.166366 279.500888,533.285537 318.531396,572.295567 C357.613099,611.46942 410.978002,645.21668 411.602573,645.534084 C414.909723,647.970931 493.257428,704.653223 556.912378,666.062985 C585.939527,648.329291 607.297775,633.472715 622.881309,622.609292 C660.324795,596.571888 660.345273,596.571888 682.973139,609.288544 C816.989489,684.134561 843.078087,740.007983 837.364807,761.28432 Z" id="Shape" fill-opacity="0.6" fill="#3B87EF"></path>
            <path d="M145.854224,38.209593 C143.072328,38.209593 141.475066,38.589454 141.118755,38.695938 C95.340842,51.463788 45.734622,149.660534 75.438559,268.546931 C107.815861,398.383781 177.245525,521.701554 270.915673,615.811973 C365.113123,709.126834 488.76161,778.42544 618.965012,810.802742 C738.209769,840.452413 836.561121,791.076567 849.366855,745.290463 C855.077063,724.011054 828.989489,668.13456 694.974163,593.293663 C672.342202,580.568816 672.327867,580.568816 634.884381,606.610316 C619.293679,617.46862 597.940551,632.32622 568.91033,650.066057 C505.261523,688.651175 426.905627,631.969908 423.60462,629.536132 C422.973907,629.220775 369.60798,595.466348 330.529349,556.300686 C291.501912,517.284512 257.514039,464.170461 256.076503,461.920985 C254.732142,460.209049 197.6362,381.972947 236.739405,318.475675 C254.37583,289.798695 269.17302,268.598125 279.988321,253.124146 C306.394324,215.316156 306.394324,215.316156 293.653095,192.431296 C213.740893,50.314989 161.366087,38.209593 145.854224,38.209593 Z" id="Shape" fill="#E2EDFD"></path>
            <path d="M113.854224,80.209593 C111.072328,80.209593 109.475066,80.589454 109.118755,80.695938 C63.340842,93.463788 13.734622,191.660534 43.438559,310.546931 C75.815861,440.383781 145.245525,563.701554 238.915673,657.811973 C333.113123,751.126834 456.76161,820.42544 586.965012,852.802742 C706.209769,882.452413 804.561121,833.076567 817.366855,787.290463 C823.077063,766.011054 796.989489,710.13456 662.974163,635.293663 C640.342202,622.568816 640.327867,622.568816 602.884381,648.610316 C587.293679,659.46862 565.940551,674.32622 536.91033,692.066057 C473.261523,730.651175 394.905627,673.969908 391.60462,671.536132 C390.973907,671.220775 337.60798,637.466348 298.529349,598.300686 C259.501912,559.284512 225.514039,506.170461 224.076503,503.920985 C222.732142,502.209049 165.6362,423.972947 204.739405,360.475675 C222.37583,331.798695 237.17302,310.598125 247.988321,295.124146 C274.394324,257.316156 274.394324,257.316156 261.653095,234.431296 C181.740893,92.314989 129.366087,80.209593 113.854224,80.209593 Z" id="Shape" fill="#E2EDFD"></path>
            <path d="M116.854224,53.209593 C114.072328,53.209593 112.475066,53.589454 112.118755,53.695938 C66.340842,66.463788 16.734622,164.660534 46.438559,283.546931 C78.815861,413.383781 148.245525,536.701554 241.915673,630.811973 C336.113123,724.126834 459.76161,793.42544 589.965012,825.802742 C709.209769,855.452413 807.561121,806.076567 820.366855,760.290463 C826.077063,739.011054 799.989489,683.13456 665.974163,608.293663 C643.342202,595.568816 643.327867,595.568816 605.884381,621.610316 C590.293679,632.46862 568.940551,647.32622 539.91033,665.066057 C476.261523,703.651175 397.905627,646.969908 394.60462,644.536132 C393.973907,644.220775 340.60798,610.466348 301.529349,571.300686 C262.501912,532.284512 228.514039,479.170461 227.076503,476.920985 C225.732142,475.209049 168.6362,396.972947 207.739405,333.475675 C225.37583,304.798695 240.17302,283.598125 250.988321,268.124146 C277.394324,230.316156 277.394324,230.316156 264.653095,207.431296 C184.740893,65.314989 132.366087,53.209593 116.854224,53.209593 Z" id="Shape" fill="#E2EDFD"></path>
        </g>
    </g>
</svg>