<?xml version="1.0" encoding="UTF-8"?>
<svg width="897px" height="619px" viewBox="0 0 897 619" version="1.1" xmlns="http://www.w3.org/2000/svg" xmlns:xlink="http://www.w3.org/1999/xlink">
    <!-- Generator: Sketch 45.2 (43514) - http://www.bohemiancoding.com/sketch -->
    <title>us</title>
    <desc>Created with Sketch.</desc>
    <defs></defs>
    <g id="Page-1" stroke="none" stroke-width="1" fill="none" fill-rule="evenodd">
        <g id="us" fill-rule="nonzero">
            <path d="M0,518.555774 C0,573.624218 200.704,618.11133 448.056889,618.11133 C695.523556,618.11133 896.113778,573.510441 896.113778,518.555774 C896.113778,463.601107 695.409778,419.000218 448.056889,419.000218 C200.590222,418.88644 5.68434189e-14,463.373551 0,518.555774 Z" id="Shape" fill="#EFF7FD"></path>
            <path d="M81,519.038223 C81,546.117334 244.953778,567.507556 447.250667,567.507556 C649.547556,567.507556 813.501334,545.662223 813.501333,518.469334 C813.501333,491.390223 649.547555,470.000001 447.250667,470 C244.953779,469.999999 81,491.959111 81,519.038223 Z" id="Shape" fill="#D1E6FB"></path>
            <path d="M504.240889,178.699556 C504.240889,218.180445 534.960889,252.996445 576.603556,252.996444 C618.246223,252.996443 651.241778,218.180444 651.241778,178.699556 C651.241778,138.991112 619.497778,106.678223 577.741333,106.678222 C535.984888,106.678221 504.240889,139.104889 504.240889,178.699556 L504.240889,178.699556 Z M585.705778,425.142222 L724.287111,425.142222 C724.400889,422.297778 724.514667,419.225778 724.514667,416.381333 C724.514667,338.443555 672.063111,278.937777 578.765333,278.937778 C548.728,278.937778 523.469333,284.399111 502.761778,294.184 C547.135111,324.221333 575.465778,370.301333 585.705778,425.142222 Z M259.732444,135.350222 C259.732444,191.784 304.674666,241.391111 361.904889,241.391111 C419.135112,241.391111 467.149333,191.784 467.149333,135.350222 C467.149333,78.916444 420.728,33.291555 363.497778,33.291556 C306.153778,33.291556 259.732445,79.030223 259.732444,135.350222 L259.732444,135.350222 Z M161.314667,473.839111 C161.314667,478.048889 161.769778,486.354667 161.769778,486.354667 L565.112,486.354667 C565.339556,482.144889 565.567111,478.048889 565.567111,473.839111 C565.567111,362.905778 493.318222,278.141333 365.090667,278.141333 C228.443556,278.141333 161.314667,362.905777 161.314667,473.839111 L161.314667,473.839111 Z" id="Shape" fill="#AED4FC"></path>
            <path d="M581.154667,518.667556 L140.265778,518.667556 C134.121778,518.667556 129.115556,513.888889 128.888,507.744889 C128.888,507.403556 128.432889,498.301333 128.432889,493.636444 C128.432889,428.441777 148.685333,373.032 186.914667,333.323556 C227.874667,290.884445 288.518223,268.356445 362.246222,268.356444 C432.333333,268.356444 491.270222,290.770666 532.571556,333.209778 C552.141334,353.348445 567.273778,377.469334 577.513778,405.003556 C587.64,432.196445 592.76,461.892445 592.76,493.522667 C592.76,498.870223 592.646222,503.535111 592.304889,507.858667 C592.077333,514.002667 587.071111,518.667556 581.154667,518.667556 L581.154667,518.667556 Z M151.302222,495.912 L570.118222,495.912 L570.118222,493.636444 C570.118222,370.642666 488.539555,291.112 362.246222,291.112 C230.150222,291.225778 151.188444,366.888 151.188444,493.636444 C151.302222,494.319111 151.302222,495.115555 151.302222,495.912 Z M755.234667,451.766222 L603.682667,451.766222 C598.221334,451.766222 593.556445,447.897778 592.532444,442.436444 C581.609777,384.296 551.913777,337.305777 506.630222,306.472 C503.216889,304.196444 501.396444,300.214222 501.737778,296.118222 C502.079111,292.022222 504.582222,288.495111 508.223111,286.674667 C533.254222,274.955556 562.836444,269.039111 596.173333,269.039111 C647.942222,269.039111 691.519111,285.081778 722.125333,315.574222 C751.024889,344.246222 766.953777,385.206222 766.953778,430.717333 C766.953778,433.106666 766.84,435.382222 766.726222,437.544 C766.726222,438.568 766.612444,439.592 766.612444,440.616 C766.384888,446.873778 761.378666,451.766222 755.234667,451.766222 L755.234667,451.766222 Z M613.012444,429.010667 L744.198222,429.010667 C743.401778,345.611556 685.488889,291.908445 596.173333,291.908444 C574.100444,291.908444 554.075555,294.752888 536.212444,300.328 C575.010666,332.413333 601.293333,376.331556 613.012444,429.010667 L613.012444,429.010667 Z M593.670222,263.805333 C568.866666,263.805333 545.883555,253.906666 528.816889,235.816 C512.319111,218.408 503.216889,195.424889 503.216889,171.190222 C503.216889,146.955555 512.660445,124.427555 529.727111,107.474667 C546.907555,90.521778 570.004444,81.078223 594.921778,81.078222 C619.839112,81.078221 642.936,90.408 660.116444,107.474667 C677.183111,124.427556 686.626666,146.955556 686.626667,171.190222 C686.626667,194.969778 676.841778,218.635555 659.661333,235.929778 C642.025777,253.906667 618.587555,263.805334 593.670222,263.805333 Z M594.921778,103.833778 C556.237334,103.833778 525.972445,133.416 525.972444,171.190222 C525.972444,209.647111 556.351111,241.049778 593.670222,241.049778 C631.672,241.049778 663.757333,209.078222 663.757333,171.190222 C663.871111,133.416 633.606222,103.833778 594.921778,103.833778 L594.921778,103.833778 Z M359.060444,251.062222 C325.951111,251.062222 294.889777,237.408889 271.451556,212.719111 C248.923556,188.825778 235.952889,156.512889 235.952889,123.858667 C235.952889,56.047111 291.931556,0.864889 360.767111,0.864889 C429.488889,0.864889 485.467555,56.047111 485.467556,123.858667 C485.467556,156.399111 471.814223,188.825778 448.148444,212.946667 C423.8,237.522667 392.169777,251.062223 359.060444,251.062222 L359.060444,251.062222 Z M360.767111,23.620444 C304.560889,23.620444 258.708444,68.562666 258.708444,123.858667 C258.708444,180.52 304.674666,228.420445 359.060444,228.420444 C414.242666,228.420444 462.712,179.609777 462.712,123.858667 C462.598222,68.562667 416.973333,23.620445 360.767111,23.620444 L360.767111,23.620444 Z" id="Shape" fill="#3DA5FD"></path>
        </g>
    </g>
</svg>