<?xml version="1.0" standalone="no"?><!DOCTYPE svg PUBLIC "-//W3C//DTD SVG 1.1//EN" "http://www.w3.org/Graphics/SVG/1.1/DTD/svg11.dtd"><svg t="1512790145821" class="icon" style="" viewBox="0 0 1024 1024" version="1.1" xmlns="http://www.w3.org/2000/svg" p-id="7578" xmlns:xlink="http://www.w3.org/1999/xlink" width="200" height="200"><defs><style type="text/css"></style></defs><path d="M752.64 278.528c-25.6 0-51.2 4.096-75.264 12.8-49.152-128-172.032-211.456-308.736-210.944-182.272 0-329.728 144.384-329.728 322.048s147.456 322.048 329.728 322.048h384c126.464 0 228.352-99.84 228.352-223.232S879.104 278.528 752.64 278.528z" fill="#E3E6EE" p-id="7579"></path><path d="M754.688 278.016c126.464 0 228.864 100.352 228.864 224.256s-102.4 224.256-228.864 224.256-228.864-100.352-228.864-224.256 102.4-224.256 228.864-224.256z" fill="#DBDEE5" p-id="7580"></path><path d="M321.536 805.888h-44.032l31.232-31.232c4.608-4.608 4.608-12.8 0-17.92-4.608-4.608-12.8-4.608-17.92 0l-31.232 31.232v-44.032c0-7.168-5.632-12.8-12.8-12.8s-12.8 5.632-12.8 12.8v44.032l-31.232-31.232c-4.608-4.608-12.8-4.608-17.92 0s-4.608 12.8 0 17.92l31.232 31.232h-43.52c-7.168 0-12.8 5.632-12.8 12.8s5.632 12.8 12.8 12.8h44.032l-31.232 31.232c-4.608 4.608-4.608 12.8 0 17.92 2.56 2.56 5.632 3.584 8.704 3.584s6.656-1.536 8.704-3.584l31.232-31.232v44.032c0 7.168 5.632 12.8 12.8 12.8s12.8-5.632 12.8-12.8v-44.032l31.232 31.232c2.56 2.56 5.632 3.584 8.704 3.584s6.656-1.536 8.704-3.584c4.608-4.608 4.608-12.8 0-17.92l-31.232-31.232h44.032c7.168 0 12.8-5.632 12.8-12.8 0-7.68-5.632-12.8-12.288-12.8zM600.064 851.968h-44.032l31.232-31.232c4.608-4.608 4.608-12.8 0-17.92-4.608-4.608-12.8-4.608-17.92 0l-31.232 31.232v-44.032c0-7.168-5.632-12.8-12.8-12.8s-12.8 5.632-12.8 12.8v44.032l-31.232-31.232c-4.608-4.608-12.8-4.608-17.92 0s-4.608 12.8 0 17.92l31.232 31.232H450.56c-7.168 0-12.8 5.632-12.8 12.8s5.632 12.8 12.8 12.8h44.032l-31.232 31.232c-4.608 4.608-4.608 12.8 0 17.92 2.56 2.56 5.632 3.584 8.704 3.584 3.072 0 6.656-1.536 8.704-3.584l31.232-31.232v44.032c0 7.168 5.632 12.8 12.8 12.8s12.8-5.632 12.8-12.8v-44.032l31.232 31.232c2.56 2.56 5.632 3.584 8.704 3.584 3.072 0 6.656-1.536 8.704-3.584 4.608-4.608 4.608-12.8 0-17.92l-31.232-31.232h44.032c7.168 0 12.8-5.632 12.8-12.8s-4.608-12.8-11.776-12.8zM779.264 878.592h-19.968l13.824-13.824c4.608-4.608 4.608-12.8 0-17.92s-12.8-4.608-17.92 0l-13.824 13.824v-19.456c0-7.168-5.632-12.8-12.8-12.8s-12.8 5.632-12.8 12.8v19.456l-13.824-13.824c-4.608-4.608-12.8-4.608-17.92 0-4.608 4.608-4.608 12.8 0 17.92l13.824 13.824h-18.432c-7.168 0-12.8 5.632-12.8 12.8s5.632 12.8 12.8 12.8h19.456l-13.824 13.824c-4.608 4.608-4.608 12.8 0 17.92 2.56 2.56 5.632 3.584 8.704 3.584 3.072 0 6.656-1.536 8.704-3.584l13.824-13.824v19.456c0 7.168 5.632 12.8 12.8 12.8s12.8-5.632 12.8-12.8v-19.456l13.824 13.824c2.56 2.56 5.632 3.584 8.704 3.584 3.072 0 6.656-1.536 8.704-3.584 4.608-4.608 4.608-12.8 0-17.92l-13.824-13.824h19.456c7.168 0 12.8-5.632 12.8-12.8s-5.632-12.8-12.288-12.8zM398.336 592.384H378.88l13.824-13.824c4.608-4.608 4.608-12.8 0-17.92-4.608-4.608-12.8-4.608-17.92 0l-13.824 13.824v-19.456c0-7.168-5.632-12.8-12.8-12.8s-12.8 5.632-12.8 12.8v19.456l-13.824-13.824c-4.608-4.608-12.8-4.608-17.92 0s-4.608 12.8 0 17.92l13.824 13.824h-19.456c-7.168 0-12.8 5.632-12.8 12.8s5.632 12.8 12.8 12.8H317.44l-13.824 13.824c-4.608 4.608-4.608 12.8 0 17.92 2.56 2.56 5.632 3.584 8.704 3.584 3.072 0 6.656-1.536 8.704-3.584l13.824-13.824v19.456c0 7.168 5.632 12.8 12.8 12.8s12.8-5.632 12.8-12.8v-19.456l13.824 13.824c2.56 2.56 5.632 3.584 8.704 3.584s6.656-1.536 8.704-3.584c4.608-4.608 4.608-12.8 0-17.92l-13.824-13.824h19.456c7.168 0 12.8-5.632 12.8-12.8 1.024-7.168-4.608-12.8-11.776-12.8zM674.816 679.424l45.056 45.056c4.608 4.608 11.264 7.68 17.92 7.68 6.656 0 12.8-2.56 17.92-7.68 9.728-9.728 9.728-25.088 0-34.816l-45.056-45.056H773.12c13.312 0 24.576-11.264 24.576-24.576s-11.264-24.576-24.576-24.576h-64l45.056-45.056c9.728-9.728 9.728-25.088 0-34.816-9.728-9.728-25.088-9.728-34.816 0l-45.056 45.056V496.128c0-13.312-11.264-24.576-24.576-24.576-13.312 0-24.576 11.264-24.576 24.576v64l-45.056-45.056c-9.728-9.728-25.088-9.728-34.816 0-9.728 9.728-9.728 25.088 0 34.816l45.056 45.056h-64c-13.312 0-24.576 11.264-24.576 24.576s11.264 24.576 24.576 24.576h64l-45.056 45.056c-9.728 9.728-9.728 25.088 0 34.816 4.608 4.608 11.264 7.68 17.92 7.68s12.8-2.56 17.92-7.68l45.056-45.056v64c0 13.312 11.264 24.576 24.576 24.576 13.312 0 24.576-11.264 24.576-24.576v-63.488z" fill="#48B9E5" p-id="7581"></path></svg>