<?xml version="1.0" encoding="UTF-8"?>
<svg width="884px" height="992px" viewBox="0 0 884 992" version="1.1" xmlns="http://www.w3.org/2000/svg" xmlns:xlink="http://www.w3.org/1999/xlink">
    <!-- Generator: Sketch 45.2 (43514) - http://www.bohemiancoding.com/sketch -->
    <title>3</title>
    <desc>Created with Sketch.</desc>
    <defs></defs>
    <g id="Page-1" stroke="none" stroke-width="1" fill="none" fill-rule="evenodd">
        <g id="3" fill-rule="nonzero">
            <polygon id="Shape" fill-opacity="0.6" fill="#FFFFBF" points="37.701511 25.653476 242.53792 25.653476 242.53792 951.04 37.701511 951.04"></polygon>
            <polygon id="Shape" fill-opacity="0.8" fill="#3FE9DD" points="215.704569 290.801209 610.122062 290.801209 610.122062 967.842702 215.704569 967.842702"></polygon>
            <path d="M608.39264,893.969067 C608.39264,898.738631 601.748018,902.579769 593.574222,902.579769 L94.499378,902.579769 C86.325582,902.579769 79.68096,898.738631 79.68096,893.969067 L79.68096,563.813262 C79.68096,559.080106 86.325582,555.20256 94.499378,555.20256 L593.556018,555.20256 C601.729814,555.20256 608.374436,559.080107 608.374436,563.813262 L608.374436,893.969067 L883.115756,657.006178" id="Shape" fill-opacity="0.7" fill="#E46775"></path>
            <path d="M593.556018,991.362844 L94.499378,991.362844 C45.201742,991.362844 5.079147,951.567928 5.079147,902.670791 L5.079147,361.288818 C5.079147,312.373476 45.201743,272.596765 94.499378,272.596764 L593.556018,272.596764 C642.871858,272.596764 682.976249,312.39168 682.976249,361.288818 L682.976249,902.670791 C682.976249,951.567929 642.871858,991.362844 593.556018,991.362844 Z M94.499378,309.005653 C65.26304,309.005653 41.488036,332.471182 41.488036,361.288818 L41.488036,902.670791 C41.488036,931.506631 65.26304,954.953955 94.499378,954.953956 L593.556018,954.953956 C622.774151,954.953956 646.56736,931.506632 646.56736,902.670791 L646.56736,361.288818 C646.56736,332.471182 622.774151,309.005654 593.556018,309.005653 L94.499378,309.005653 Z M599.2176,270.94016 L88.856,270.94016 C39.8834741,270.889988 0.195913545,231.202428 0.145742,182.229902 L0.145742,89.186987 C0.205944058,40.2215704 39.8905721,0.545085961 88.856,0.494933 L599.2176,0.494933 C648.183028,0.545085961 687.867656,40.2215704 687.927858,89.186987 L687.927858,182.229902 C687.877686,231.202428 648.190126,270.889988 599.2176,270.94016 L599.2176,270.94016 Z M88.856,36.903822 C59.9903264,36.9339042 36.5947619,60.3213256 36.554631,89.186987 L36.554631,182.229902 C36.5847328,211.102673 59.9832293,234.501169 88.856,234.531271 L599.2176,234.531271 C628.090371,234.501169 651.488867,211.102673 651.518969,182.229902 L651.518969,89.186987 C651.478838,60.3213256 628.083274,36.9339042 599.2176,36.903822 L88.856,36.903822 Z" id="Shape" fill-opacity="0.4" fill="#683651"></path>
            <path d="M560.241884,25.653476 L257.538382,25.653476 C234.473351,25.653476 215.704569,53.943183 215.704569,88.713671 L215.704569,171.962596 C215.704569,206.71488 234.473351,235.022792 257.538382,235.022791 L560.241884,235.022791 C583.306915,235.022791 602.075697,206.71488 602.075698,171.962596 L602.075698,88.713671 C602.075698,53.943182 583.306916,25.653475 560.241884,25.653476" id="Shape" fill-opacity="0.8" fill="#3FE9DD"></path>
            <path d="M477.138596,613.966507 L210.898596,613.966507 C200.844559,613.966507 192.694151,605.8161 192.694151,595.762062 C192.694151,585.708025 200.844559,577.557618 210.898596,577.557618 L477.138596,577.557618 C487.192633,577.557618 495.343041,585.708025 495.343041,595.762062 C495.343041,605.8161 487.192633,613.966507 477.138596,613.966507 Z" id="Shape" fill-opacity="0.6" fill="#683651"></path>
            <path d="M344.009493,747.095609 C339.181374,747.095609 334.551002,745.177646 331.137007,741.76365 C327.723011,738.349655 325.805049,733.719283 325.805049,728.891164 L325.805049,462.651164 C325.805049,452.597127 333.955456,444.44672 344.009493,444.44672 C354.063531,444.44672 362.213938,452.597127 362.213938,462.651164 L362.213938,728.891164 C362.213938,733.719283 360.295976,738.349655 356.88198,741.763651 C353.467984,745.177647 348.837612,747.095609 344.009493,747.095609 L344.009493,747.095609 Z" id="Shape" fill-opacity="0.6" fill="#683651"></path>
        </g>
    </g>
</svg>