<?xml version="1.0" standalone="no"?><!DOCTYPE svg PUBLIC "-//W3C//DTD SVG 1.1//EN" "http://www.w3.org/Graphics/SVG/1.1/DTD/svg11.dtd"><svg t="1512789697613" class="icon" style="" viewBox="0 0 1024 1024" version="1.1" xmlns="http://www.w3.org/2000/svg" p-id="1389" xmlns:xlink="http://www.w3.org/1999/xlink" width="200" height="200"><defs><style type="text/css"></style></defs><path d="M512.01 0C794.768 0 1024 229.232 1024 512.01 1024 794.768 794.768 1024 512.01 1024 229.232 1024 0 794.768 0 512.01 0 229.232 229.232 0 512.01 0z" fill="#B1E9F1" p-id="1390"></path><path d="M627.836 498.394c5.314 0 10.334 0.86 14.768 2.384 4.806-3.204 11.39-5.176 18.656-5.176 12.562 0 23.11 5.92 25.924 13.89 6.29 1.27 11.312 4.512 13.616 8.634 0.762-0.04 1.524-0.078 2.306-0.078 11.604 0 21.04 6.408 21.04 14.3 0 7.912-9.436 14.3-21.04 14.3-3.634 0-7.032-0.606-10.002-1.7-2.56 5.938-10.628 10.276-20.2 10.276-5.842 0-11.116-1.622-14.926-4.24-3.828 2.618-9.104 4.24-14.964 4.24-5.548 0-10.608-1.466-14.358-3.848-3.848 2.852-9.378 4.65-15.53 4.65-5.764 0-10.96-1.562-14.75-4.122-1.738 0.274-3.556 0.41-5.412 0.41-13.832 0-25.044-7.638-25.044-17.054 0-9.396 11.214-17.036 25.044-17.036 0.762 0 1.504 0.04 2.246 0.078 1.78-11.196 15.708-19.908 32.626-19.908zM935.934 294.364c5.314 0 10.334 0.86 14.768 2.384 4.806-3.204 11.39-5.176 18.638-5.176 1.72 0 3.418 0.098 5.04 0.312a510.112 510.112 0 0 1 22.252 54.564c-3.848 2.91-9.436 4.728-15.628 4.728-5.842 0-11.136-1.622-14.944-4.24-3.81 2.618-9.104 4.24-14.944 4.24-5.548 0-10.608-1.466-14.378-3.848-3.828 2.852-9.358 4.65-15.512 4.65-5.764 0-10.98-1.562-14.768-4.122-1.738 0.274-3.536 0.41-5.392 0.41-13.85 0-25.064-7.638-25.064-17.036 0-9.416 11.214-17.054 25.064-17.054 0.742 0 1.504 0.04 2.228 0.078 1.774-11.198 15.702-19.89 32.64-19.89z" fill="#FFFFFF" p-id="1391"></path><path d="M148.724 872.774l142.356-247.926 40.576 79.764 198.326-345.352 186.878 367.388 112.506-195.924 123.212 242.204C863.358 923.236 699.474 1024 512.01 1024c-142.024 0-270.53-57.826-363.286-151.226z" fill="#FFFFFF" p-id="1392"></path><path d="M529.982 359.26l218.526 429.628 80.858-258.164 123.212 242.204C863.358 923.236 699.474 1024 512.01 1024c-3.164 0-6.29-0.058-9.436-0.118l-41.436-45.616 109.946-98.812-111.216-56.712 140.208-77.576-70.094-38.778V359.26z" fill="#CCCCCC" p-id="1393"></path><path d="M3.77 449.75l72.868-132.042 179.688 367.66-107.602 187.406C56.81 780.214 0 652.744 0 512.01c0-21.08 1.308-41.846 3.77-62.26z" fill="#FFFFFF" p-id="1394"></path><path d="M76.638 317.708l179.688 367.66-107.602 187.406a514.228 514.228 0 0 1-77.126-99.534l37-34.618-73.024-38.74a507.054 507.054 0 0 1-4.65-12.21l100.218-57.688-54.504-31.394V317.708zM1021.03 456.802l-77.674-137.766-108.618 222.238 117.838 231.654C997.94 696.524 1024 607.304 1024 512.01c0-18.656-1.016-37.078-2.97-55.208z" fill="#CCCCCC" p-id="1395"></path><path d="M943.356 319.036l-108.618 222.238 95.882 188.48 32.468-51.476-39.11-64.234 34.538-36.356-40.418-28.6zM278.266 56.36c18.266 17.778 29.616 42.608 29.616 70.114 0 54.036-43.798 97.834-97.834 97.834-35.946 0-67.358-19.418-84.374-48.312C168.28 127.06 220.03 86.288 278.266 56.36zM543.012 198.794c9.514 0 18.48 1.544 26.412 4.258 8.596-5.724 20.376-9.26 33.366-9.26 22.486 0 41.338 10.588 46.378 24.83 11.252 2.286 20.258 8.068 24.38 15.472a56.616 56.616 0 0 1 4.102-0.136c20.766 0 37.626 11.448 37.626 25.572 0 14.144-16.86 25.592-37.626 25.592-6.486 0-12.58-1.114-17.894-3.068-4.552 10.628-19.008 18.402-36.122 18.402-10.452 0-19.906-2.892-26.724-7.58-6.838 4.688-16.292 7.58-26.744 7.58-9.944 0-18.988-2.618-25.708-6.896-6.876 5.098-16.762 8.322-27.78 8.322-10.296 0-19.614-2.814-26.392-7.364a65.246 65.246 0 0 1-9.67 0.704c-24.752 0-44.834-13.636-44.834-30.476s20.082-30.476 44.834-30.476c1.348 0 2.696 0.04 4.004 0.118 3.186-20.004 28.112-35.594 58.392-35.594zM231.634 429.608c5.314 0 10.334 0.86 14.768 2.384 4.806-3.184 11.39-5.176 18.656-5.176 12.562 0 23.11 5.92 25.924 13.89 6.29 1.27 11.312 4.512 13.616 8.654 0.762-0.058 1.524-0.098 2.306-0.098 11.604 0 21.04 6.408 21.04 14.3 0 7.912-9.436 14.32-21.04 14.32-3.634 0-7.032-0.626-10.002-1.72-2.56 5.938-10.628 10.276-20.2 10.276-5.842 0-11.116-1.622-14.926-4.24-3.828 2.618-9.104 4.24-14.964 4.24-5.548 0-10.608-1.466-14.358-3.848-3.848 2.852-9.378 4.65-15.53 4.65-5.764 0-10.96-1.562-14.75-4.122-1.738 0.274-3.556 0.41-5.412 0.41-13.832 0-25.044-7.638-25.044-17.036 0-9.416 11.214-17.054 25.044-17.054 0.762 0 1.504 0.04 2.246 0.078 1.78-11.194 15.708-19.908 32.626-19.908z" fill="#FFFFFF" p-id="1396"></path><path d="M553.054 131.728s11.584-2.5 21.274-0.644c9.71 1.876 19.828 9.924 30.788 10.55 10.94 0.606 8.674-3.516 8.674-3.516s-7.032 1.036-8.888-4.962c-1.856-5.978 5.782-10.744 17.562-18.988 11.78-8.264 14.046-16.528 11.78-21.704 0 0-2.07 3.302-11.78 8.478-9.71 5.158-16.722 14.672-24.36 21.47-7.658 6.818-8.068 7.228-15.296 5.782-7.23-1.446-22.72-3.712-29.754 3.534zM334.176 221.866s11.584-2.482 21.274-0.626c9.71 1.856 19.828 9.924 30.788 10.53 10.96 0.626 8.674-3.516 8.674-3.516s-7.014 1.054-8.888-4.942c-1.856-5.998 5.802-10.764 17.562-19.008 11.78-8.264 14.046-16.528 11.78-21.704 0 0-2.07 3.322-11.78 8.478-9.71 5.176-16.722 14.672-24.36 21.47-7.658 6.838-8.068 7.248-15.296 5.802-7.228-1.446-22.72-3.712-29.754 3.516zM710.882 341.132s11.566-2.482 21.274-0.626c9.71 1.876 19.828 9.924 30.788 10.55 10.94 0.606 8.674-3.516 8.674-3.516s-7.032 1.036-8.888-4.962c-1.856-5.978 5.782-10.744 17.562-18.988 11.78-8.284 14.046-16.546 11.78-21.704 0 0-2.07 3.302-11.78 8.478-9.71 5.158-16.742 14.672-24.38 21.47-7.638 6.818-8.048 7.228-15.276 5.782-7.228-1.446-22.74-3.712-29.754 3.516z" fill="" p-id="1397"></path></svg>