<?xml version="1.0" standalone="no"?><!DOCTYPE svg PUBLIC "-//W3C//DTD SVG 1.1//EN" "http://www.w3.org/Graphics/SVG/1.1/DTD/svg11.dtd"><svg t="1525835610364" class="icon" style="" viewBox="0 0 1024 1024" version="1.1" xmlns="http://www.w3.org/2000/svg" p-id="3116" xmlns:xlink="http://www.w3.org/1999/xlink" width="200" height="200"><defs><style type="text/css"></style></defs><path d="M54.88 827.04h199.04v72.16a39.04 39.04 0 0 1-39.04 39.04H93.92a39.04 39.04 0 0 1-39.04-39.04v-72.16zM768 827.04h199.04v72.16A39.04 39.04 0 0 1 928 938.08h-120.96A39.04 39.04 0 0 1 768 899.2v-72.16z" fill="#2DA8C4" p-id="3117"></path><path d="M54.88 839.36h198.88v52.8H54.88zM768 839.36h198.88v52.8H768z" fill="#1F88A0" p-id="3118"></path><path d="M998.88 852.16H25.6a16 16 0 0 1-16-14.4v-240a56.48 56.48 0 0 1 59.2-51.84 4000 4000 0 0 1 886.88 0 56.48 56.48 0 0 1 59.84 52.32v240a16 16 0 0 1-16.64 13.92z" fill="#2DA8C4" p-id="3119"></path><path d="M51.2 395.36a18.4 18.4 0 0 0-17.6 13.28 121.76 121.76 0 0 0-4.96 34.72c0 44 21.44 80 48 80s48-35.68 48-80a116.32 116.32 0 0 0-9.92-48zM912 395.36a116.16 116.16 0 0 0-9.92 48c0 44 21.44 80 48 80s48-35.68 48-80a123.04 123.04 0 0 0-3.68-30.56 23.52 23.52 0 0 0-23.04-17.44z" fill="#1F88A0" p-id="3120"></path><path d="M974.4 536.96a946.08 946.08 0 0 0-120.8-294.72 151.2 151.2 0 0 0-127.2-68.8H300a151.36 151.36 0 0 0-128 68.96 947.68 947.68 0 0 0-120.64 296.96 11.2 11.2 0 0 0 12.64 13.6c77.92-13.12 426.56-63.2 897.92-2.56a11.2 11.2 0 0 0 12.48-13.44z" fill="#58C6FE" p-id="3121"></path><path d="M73.28 395.2H51.36a18.4 18.4 0 0 0-17.6 13.28 121.76 121.76 0 0 0-4.96 34.72 114.4 114.4 0 0 0 11.2 50.56q14.72-51.36 33.28-98.56zM953.12 395.36h21.92a18.4 18.4 0 0 1 17.6 13.28 122.24 122.24 0 0 1 4.96 34.72 114.72 114.72 0 0 1-11.2 50.72q-14.72-51.36-33.28-98.72z" fill="#2DA8C4" p-id="3122"></path><path d="M129.92 508a14.24 14.24 0 0 1-13.76-17.92 647.84 647.84 0 0 1 104.48-220.64 140.8 140.8 0 0 1 113.12-52.64h358.88a140.8 140.8 0 0 1 113.12 52.64 647.2 647.2 0 0 1 103.84 218.56 14.4 14.4 0 0 1-16 17.92c-72.64-7.84-450.88-44.48-762.4 1.92h-1.28z m0-16z m204.16-259.2a124.8 124.8 0 0 0-100.32 46.24 630.72 630.72 0 0 0-101.44 212.64c310.56-45.76 685.12-10.08 762.08-1.76a644 644 0 0 0-101.28-210.88 124.8 124.8 0 0 0-100.32-46.24z" fill="#FFFFFF" p-id="3123"></path><path d="M955.68 545.92a4000 4000 0 0 0-886.88 0 56.48 56.48 0 0 0-59.84 52.32v62.72A56.48 56.48 0 0 1 68.8 608a4000 4000 0 0 1 886.88 0 56.48 56.48 0 0 1 59.84 52.32v-62.08a56.48 56.48 0 0 0-59.84-52.32z" fill="#1F88A0" p-id="3124"></path><path d="M758.72 289.6l-96 96a14.4 14.4 0 0 0 20.32 20.32l96-96a14.4 14.4 0 0 0-20.32-20.32zM344 252.8L293.12 304a14.4 14.4 0 0 0 20.32 20.32l50.88-50.88a14.4 14.4 0 0 0-20.32-20.64zM675.68 252.8L624.96 304a14.4 14.4 0 0 0 20.32 20.32l50.88-50.88a14.4 14.4 0 0 0-20.32-20.32zM157.76 594.72h112A29.76 29.76 0 0 1 298.72 624v64a29.76 29.76 0 0 1-29.76 29.76h-112a57.12 57.12 0 0 1-57.12-57.12v-8.32a57.12 57.12 0 0 1 57.12-57.12zM866.72 717.12h-112a29.76 29.76 0 0 1-28.96-29.28v-64a29.76 29.76 0 0 1 29.76-29.76h112a57.12 57.12 0 0 1 57.12 57.12v8.32a57.12 57.12 0 0 1-57.12 57.12zM403.68 704H620.8a22.88 22.88 0 0 1 22.88 22.88v91.68a2.4 2.4 0 0 1-2.4 2.4H384a2.4 2.4 0 0 1-2.4-2.4v-91.52A22.88 22.88 0 0 1 403.68 704z" fill="#FFFFFF" p-id="3125"></path></svg>