<?xml version="1.0" standalone="no"?><!DOCTYPE svg PUBLIC "-//W3C//DTD SVG 1.1//EN" "http://www.w3.org/Graphics/SVG/1.1/DTD/svg11.dtd"><svg t="1512790882245" class="icon" style="" viewBox="0 0 1024 1024" version="1.1" xmlns="http://www.w3.org/2000/svg" p-id="25534" xmlns:xlink="http://www.w3.org/1999/xlink" width="200" height="200"><defs><style type="text/css"></style></defs><path d="M908.8 25.6c0 0-30.72 0-61.44 0-25.6 0-48.64 0-48.64 0l-64 0c0 0-2.56 0-5.12 0L179.2 28.16c-48.64 0-89.6 38.4-89.6 89.6l0 130.56 99.84 0c17.92 0 33.28 15.36 33.28 33.28l0 23.04c0 17.92-15.36 33.28-33.28 33.28L179.2 337.92l0-10.24c0-17.92-15.36-33.28-33.28-33.28L58.88 294.4c0 0-2.56 0-2.56 0 0 0 0 0 0 0-12.8 0-23.04 10.24-28.16 23.04 0 0 0 0 0 0C25.6 317.44 25.6 320 25.6 325.12l0 23.04c0 17.92 15.36 33.28 33.28 33.28l33.28 0 0 243.2 99.84 0c17.92 0 33.28 15.36 33.28 33.28l0 23.04c0 17.92-15.36 33.28-33.28 33.28L179.2 714.24l0-10.24c0-17.92-15.36-33.28-33.28-33.28L58.88 670.72c0 0-2.56 0-2.56 0 0 0 0 0 0 0-12.8 0-23.04 10.24-28.16 23.04 0 0 0 0 0 0C25.6 691.2 25.6 696.32 25.6 701.44l0 23.04c0 17.92 15.36 33.28 33.28 33.28l33.28 0 0 153.6C92.16 960 130.56 998.4 179.2 998.4l729.6 0c48.64 0 89.6-38.4 89.6-89.6L998.4 115.2C998.4 64 960 25.6 908.8 25.6L908.8 25.6zM499.2 189.44C517.12 179.2 537.6 186.88 547.84 202.24l46.08 79.36c10.24 17.92 5.12 38.4-12.8 48.64l-30.72 17.92-81.92-140.8L499.2 189.44 499.2 189.44zM734.72 780.8c-56.32 33.28-110.08 15.36-158.72-20.48-74.24-53.76-128-153.6-140.8-174.08-10.24-15.36-56.32-92.16-74.24-174.08-15.36-69.12-7.68-138.24 56.32-176.64l15.36-10.24 79.36 138.24 0 0c-33.28 20.48-46.08 64-25.6 97.28l81.92 140.8c20.48 33.28 64 46.08 97.28 25.6l0 0 81.92 140.8L734.72 780.8 734.72 780.8zM814.08 734.72l-30.72 20.48L701.44 614.4l30.72-20.48c17.92-10.24 38.4-5.12 48.64 12.8l46.08 79.36C837.12 704 832 724.48 814.08 734.72L814.08 734.72zM814.08 734.72" p-id="25535"></path></svg>