<?xml version="1.0" standalone="no"?><!DOCTYPE svg PUBLIC "-//W3C//DTD SVG 1.1//EN" "http://www.w3.org/Graphics/SVG/1.1/DTD/svg11.dtd"><svg t="1525832230275" class="icon" style="" viewBox="0 0 1024 1024" version="1.1" xmlns="http://www.w3.org/2000/svg" p-id="5595" xmlns:xlink="http://www.w3.org/1999/xlink" width="200" height="200"><defs><style type="text/css"></style></defs><path d="M854.85 634.85a437.11 437.11 0 0 0-5-58.32 519.62 519.62 0 0 0-11.73-55.93q-7.34-27.48-17.23-54.18-6.09-16.46-13-32.62-4.09-9.48-8.51-18.8c-0.29-0.61-0.58-1.23-0.87-1.85-0.64-1.34-1.29-2.68-1.94-4q-1.82-3.76-3.68-7.51-3.68-7.41-7.51-14.73-2.27-4.33-4.61-8.62-2-3.61-4-7.19-1.92-3.43-3.87-6.83c-0.46-0.79-0.9-1.58-1.36-2.37q-1.46-2.51-2.95-5-7.1-12-14.65-23.68-2.41-3.73-4.87-7.43-2.25-3.38-4.53-6.73-2.49-3.65-5-7.26-3.5-5-7.1-9.91-2.25-3.09-4.54-6.16-4.33-5.81-8.79-11.52-2.35-3-4.73-6-4.76-6-9.66-11.8l-0.63-0.74q-2.56-3-5.16-6-2.73-3.16-5.5-6.28-2.51-2.83-5.06-5.64-10.91-12-22.47-23.37a557.13 557.13 0 0 0-43-38 416.72 416.72 0 0 0-46.91-32.42 344.36 344.36 0 0 0-50.99-25.3A246.82 246.82 0 0 0 470.83 114c-18.68-2.67-37.78-2.88-56.4 0.49a142 142 0 0 0-46 16.75l-8.84 5.14-19.4 11.27-25.12 14.6-26 15.1-22 12.79-13.2 7.67-1.78 1 0.46-0.26c-51.37 29.59-83.25 92.84-83.5 182.86-0.47 180.72 126.57 400.77 283.79 491.59 79.44 45.81 151.38 49.9 203.16 19.42l-0.62 0.37 7.62-4.39 19-11.05 25.53-14.84 26.55-15.43 22.71-13.2 13.41-7.79a145.65 145.65 0 0 0 26.74-19.7 158.67 158.67 0 0 0 33.36-45.61 227.42 227.42 0 0 0 18.37-54.32 313.54 313.54 0 0 0 6.17-57.4q0.16-7.06 0.01-14.21z" fill="#F5F9FF" p-id="5596"></path><path d="M665.86 224.31a557.13 557.13 0 0 0-43-38 416.72 416.72 0 0 0-46.91-32.42A344.36 344.36 0 0 0 525 128.66 246.82 246.82 0 0 0 470.83 114c-18.68-2.67-37.78-2.88-56.4 0.49a142 142 0 0 0-46 16.75l-8.84 5.14-19.4 11.27-25.12 14.6-26 15.1-22 12.79-13.2 7.67-1.78 1a140.47 140.47 0 0 1 45.49-16.62 172.82 172.82 0 0 1 49.27-1.49 232.21 232.21 0 0 1 47.38 10.46 305.32 305.32 0 0 1 45.26 19.18A379.14 379.14 0 0 1 482.08 236c13.41 9.37 26.42 19.26 38.87 29.87 12.71 10.84 25 22.27 36.59 34.28 11.43 11.81 22.53 24 33 36.65l7.08 8.68 96.54-91.34c-7.29-7.97-20.59-22.26-28.3-29.83z" fill="#C0D3F2" p-id="5597"></path><path d="M688.33 247.68l-95 92.59c1.6 2 8.64 10.77 10.22 12.75l89.86-99.71q-2.53-2.82-5.08-5.63z" fill="#BFD2F2" p-id="5598"></path><path d="M693.39 253.32l-95.3 92.87c1.74 2.19 9.18 11.76 10.9 14L704 265.65c-1.77-2.11-8.76-10.25-10.61-12.33z" fill="#BED2F2" p-id="5599"></path><path d="M698.89 259.6l-95.63 93.18c1.63 2.1 9.48 12.44 11.09 14.56l93.6-97c-1.7-2.04-7.33-8.73-9.06-10.74z" fill="#BDD1F2" p-id="5600"></path><path d="M704.68 266.39l-0.63-0.74-95.92 93.46c3.29 4.33 10.72 14.5 13.9 18.91l95.3-96.02c-3.18-4-9.38-11.72-12.65-15.61z" fill="#BCD1F1" p-id="5601"></path><path d="M714.34 278.19l-96.49 94c1 1.33 1.93 2.64 2.88 4 0.53 0.75 5.51 7.88 6 8.64L724.32 291c-1.56-2-8.39-10.82-9.98-12.81z" fill="#BBD0F1" p-id="5602"></path><path d="M719.06 284.18l-96.76 94.28c2.8 4 9.56 14 12.27 18l96.51-96.37c-2.88-3.88-9.08-12.09-12.02-15.91z" fill="#BACFF1" p-id="5603"></path><path d="M727.85 295.7l-97.27 94.79c1.43 2.13 8 12.2 9.43 14.35l96.57-97.17c-1.51-2.07-7.21-9.93-8.73-11.97z" fill="#B9CFF1" p-id="5604"></path><path d="M739.49 311.77q-3.5-5-7.1-9.91l-97.53 95c3.88 5.91 11.75 18.59 15.44 24.62L747.85 324c-1.66-2.44-6.67-9.82-8.36-12.23z" fill="#B8CEF1" p-id="5605"></path><path d="M744.5 319l-98.3 95.79c0.8 1.31 1.63 2.61 2.42 3.93 0.62 1 5.14 8.65 5.75 9.67L754.43 334c-1.5-2.23-8.43-12.74-9.93-15z" fill="#B7CEF1" p-id="5606"></path><path d="M749 325.76l-98.59 96.07c1.53 2.57 8.29 14.25 9.79 16.84l93.7-105.47q-2.41-3.74-4.9-7.44z" fill="#B6CDF1" p-id="5607"></path><path d="M753.9 333.2L655 429.56c4.71 8.13 12.15 21.84 16.53 30.15L771 361c-4.73-7.94-12.06-20-17.1-27.8z" fill="#B4CCF0" p-id="5608"></path><path d="M771.5 361.89q-1.46-2.51-2.95-5l-99.9 97.35c1.35 2.55 5.58 10.78 6.9 13.35l100.3-98.07c-0.46-0.8-3.85-6.84-4.35-7.63z" fill="#B3CCF0" p-id="5609"></path><path d="M772.86 364.26l-100.21 97.65 0.53 1c1 2 5.32 10.7 6.33 12.74l99.64-100.2c-1.27-2.27-4.99-8.92-6.29-11.19z" fill="#B2CBF0" p-id="5610"></path><path d="M776.73 371.09L676.22 469c1.24 2.49 5.79 11.91 7 14.41l100-100.5c-1.32-2.37-5.15-9.43-6.49-11.82z" fill="#B1CBF0" p-id="5611"></path><path d="M780.7 378.28l-100.8 98.23c1.43 3 6.86 14.71 8.25 17.71l101-100c-1.56-2.86-6.9-13.07-8.45-15.94z" fill="#B0CAF0" p-id="5612"></path><path d="M785.3 386.9l-101.16 98.58c2.36 5.09 7.19 16.09 9.43 21.23L795.92 408c-2.45-5-8.06-16.22-10.62-21.1z" fill="#AFC9F0" p-id="5613"></path><path d="M792.82 401.63L691 500.84c1 2.39 1.43 3.22 2.44 5.62l3.53 8.49L799.31 415c-1.22-2.5-5.25-10.87-6.49-13.37z" fill="#AEC9EF" p-id="5614"></path><path d="M798.44 413.16c-0.64-1.34-1.29-2.68-1.94-4l-102.13 99.49c0.86 2 5.23 12.94 6.07 15l101.87-102.2c-0.31-0.62-3.58-7.68-3.87-8.29z" fill="#ADC8EF" p-id="5615"></path><path d="M799.31 415l-102.4 99.78c2.66 6.51 8.66 22.69 11.09 29.29l103.84-100.75c-2.73-6.32-9.59-22.1-12.53-28.32z" fill="#ACC8EF" p-id="5616"></path><path d="M682 877.34l25.53-14.84 26.55-15.43 22.71-13.2 13.41-7.79a145.65 145.65 0 0 0 26.74-19.7 158.67 158.67 0 0 0 33.36-45.61 227.42 227.42 0 0 0 18.37-54.32 313.54 313.54 0 0 0 6.17-57.4q0.14-7.11 0-14.22a437.11 437.11 0 0 0-5-58.32 519.62 519.62 0 0 0-11.73-55.93q-7.34-27.48-17.23-54.18-6.09-16.46-13-32.62L704.54 534.44q3.64 9.87 7 19.86c5.21 15.76 9.81 31.74 13.65 47.9s7 32.56 9.22 49a448.74 448.74 0 0 1 4 50.52 354.22 354.22 0 0 1-2.41 48.97 263.31 263.31 0 0 1-10.12 47.7A198.91 198.91 0 0 1 706 842.48 149.67 149.67 0 0 1 675 879a137.08 137.08 0 0 1-19.55 13.81l7.55-4.41z" fill="#ABC7EF" p-id="5617"></path><path d="M454.7 218.71C611.92 309.48 739 529.53 738.45 710.19S610.07 963.72 452.84 873 168.58 562.13 169.09 381.47 297.47 127.93 454.7 218.71z" fill="#F5F9FF" p-id="5618"></path><path d="M466.92 702.1q-0.74-2-1.58-4-0.76-1.78-1.6-3.52c-0.57-1.19-1.18-2.37-1.8-3.54s-1.28-2.32-2-3.46q-1.92-3.23-4.12-6.29-1.19-1.65-2.46-3.23-1.12-1.4-2.3-2.75a77.016 77.016 0 0 0-4.48-4.73l-1.11-1q-1.44-1.33-3-2.6c-0.85-0.69-1.71-1.37-2.6-2a49.34 49.34 0 0 0-5.95-3.76 39.17 39.17 0 0 0-3.34-1.59 31.63 31.63 0 0 0-8.41-2.28 19.88 19.88 0 0 0-12.33 2.26c-1.51 0.86-3 1.74-4.49 2.61l-13.2 7.67h0.06c-6.45 3.71-10.45 11.65-10.48 22.94-0.06 22.67 15.88 50.29 35.61 61.68 10 5.8 19.13 6.26 25.65 2.33l-0.23 0.15 12.25-7.12c1.77-1 3.55-2.05 5.32-3.09a19.71 19.71 0 0 0 8-9.24 35.81 35.81 0 0 0 2.67-15.48 64.17 64.17 0 0 0-4.08-19.96zM471.95 377.26v-0.82a58.66 58.66 0 0 0-1.15-9.15q-0.43-2.09-1-4.15t-1.22-4a81.18 81.18 0 0 0-3.41-8.48q-1-2.2-2.16-4.32c-0.12-0.22-0.25-0.44-0.37-0.66a89.19 89.19 0 0 0-4.68-7.65A74.67 74.67 0 0 0 443.33 322c-6.42-5.18-14.54-9.74-23-9.66a19.34 19.34 0 0 0-9.64 2.59l-5 2.92-12.41 7.21h0.06c-6.45 3.72-10.47 11.64-10.51 22.88l-0.64 225.77c-0.06 22.58 16 50.34 35.61 61.68 10 5.76 19 6.21 25.55 2.32l-0.17 0.11 11.93-6.93 5.51-3.2a19.75 19.75 0 0 0 7.88-8.71c2.79-5.88 2.87-12.25 2.89-18.59q0-8.87 0.05-17.74 0-14.09 0.08-28.18 0-17.4 0.1-34.79l0.11-37.51 0.1-36.56v-8.18-4-4.82V420 406.37v-13.32-2.76-1.23-8.65-1.16c0.17-0.65 0.17-1.32 0.12-1.99z" fill="#FFC2B6" p-id="5619"></path><path d="M422.23 657.28a19.81 19.81 0 0 0-12.33 2.26c-1.51 0.86-3 1.74-4.49 2.61l-13.2 7.67c7.27-4.22 16.2-2.27 23.28 1.33 1.79 0.91 5.06 3 6.73 4.14l10.17-14.94a35 35 0 0 0-10.16-3.07z" fill="#FFA78F" p-id="5620"></path><path d="M430.65 659.57l-10 14.64c1 0.68 3.8 2.85 4.76 3.59l10.38-15.61a38.93 38.93 0 0 0-5.14-2.62z" fill="#FFA58C" p-id="5621"></path><path d="M434 661.16l-10.35 15.2c1.87 1.44 5.38 4.71 7.08 6.35l10.26-17a54.21 54.21 0 0 0-6.99-4.55z" fill="#FFA28A" p-id="5622"></path><path d="M439.94 664.91L429 681c0.8 0.78 2.77 2.83 3.54 3.64L444 668.15c-1-0.84-3.13-2.59-4.06-3.24z" fill="#FFA087" p-id="5623"></path><path d="M442.54 666.93l-11.2 16.44c0.92 1 0.67 0.65 1.54 1.67l2.31 2.7 11.41-17.2c-0.98-0.97-3.03-2.77-4.06-3.61z" fill="#FF9D84" p-id="5624"></path><path d="M446.63 670.57l-1.11-1L434 686.38c1.77 2.08 4.66 6.1 6.26 8.38L452.53 677a85.34 85.34 0 0 0-5.9-6.43z" fill="#FF9B81" p-id="5625"></path><path d="M451.12 675.3l-12 17.64c0.71 1 2.39 3.74 3.06 4.79l12.33-18.29c-0.82-1.09-2.56-3.22-3.39-4.14z" fill="#FF987F" p-id="5626"></path><path d="M453.41 678.06l-12.24 18c0.76 1.19 2.49 4.24 3.19 5.47l12.9-18.22c-0.81-1.31-2.94-4.17-3.85-5.25z" fill="#FF967C" p-id="5627"></path><path d="M455.87 681.29l-12.51 18.36c1.31 2.29 3.14 6.17 4.23 8.58l13.5-18.74a90.23 90.23 0 0 0-5.22-8.2z" fill="#FF9379" p-id="5628"></path><path d="M460 687.58l-13 19.13c0.58 1.29 1.84 4.54 2.35 5.85l13.7-19.5c-0.68-1.34-2.38-4.34-3.05-5.48z" fill="#FF9176" p-id="5629"></path><path d="M463.75 694.57a98.03 98.03 0 0 0-1.8-3.54l-13.35 19.59a94.68 94.68 0 0 1 2.87 9.39l14.61-20.12c-0.52-1.41-1.77-4.16-2.33-5.32z" fill="#FF8E74" p-id="5630"></path><path d="M465.34 698.1l-14.2 20.62c0.41 1.58 1.08 4.75 1.36 6.35l15.35-20.25c-0.52-1.82-1.94-5.41-2.51-6.72z" fill="#FF8C71" p-id="5631"></path><path d="M460.39 746.69a19.71 19.71 0 0 0 8-9.24 35.81 35.81 0 0 0 2.61-15.39 64.17 64.17 0 0 0-4-20l-14.73 21.54a60.62 60.62 0 0 1 0.95 8.85c0.28 9-2 19.59-10.4 24.45l12.25-7.12c1.78-1.03 3.55-2.06 5.32-3.09z" fill="#FF896E" p-id="5632"></path><path d="M417.64 672.31c19.72 11.39 35.67 39 35.6 61.67s-16.11 31.82-35.84 20.43-35.68-39-35.61-61.68 16.12-31.81 35.85-20.42z" fill="#FFC2B6" p-id="5633"></path><path d="M443.33 322c-6.42-5.18-14.54-9.74-23-9.66a19.34 19.34 0 0 0-9.64 2.59l-5 2.92-12.41 7.21c8.87-5.15 19.78-1.31 27.69 3.85 4 2.6 9.44 7.7 12.76 11.14l25.9 0.5a78.39 78.39 0 0 0-16.3-18.55z" fill="#FFA78F" p-id="5634"></path><path d="M457.92 338.05h-26.05c2.31 2.4 6.23 7.48 8.22 10.17h23.87a101.41 101.41 0 0 0-6.04-10.17z" fill="#FFA58D" p-id="5635"></path><path d="M463 346.36c-0.12-0.22-0.25-0.44-0.37-0.66h-24.32c1.2 1.62 3.92 5.86 5 7.56l22.87-0.25c-0.64-1.61-2.45-5.23-3.18-6.65z" fill="#FFA48B" p-id="5636"></path><path d="M465.13 350.68h-23.41q1.58 2.48 3 5c0.62 1.13 2.16 4.24 2.74 5.41l21.7-0.11a89 89 0 0 0-4.03-10.3z" fill="#FFA28A" p-id="5637"></path><path d="M468.55 359.16h-22c0.65 1.31 2.08 4.61 2.66 6h21.1c-0.39-1.79-1.31-4.68-1.76-6z" fill="#FFA088" p-id="5638"></path><path d="M469.76 363.15h-21.4c0.59 1.37 2.06 5.43 2.58 6.83l20.21-0.58c-0.34-1.99-1.01-4.88-1.39-6.25z" fill="#FF9F86" p-id="5639"></path><path d="M470.76 367.3H450a110 110 0 0 1 3.17 11.43l18.75-1a59.52 59.52 0 0 0-1.16-10.43z" fill="#FF9D84" p-id="5640"></path><path d="M472 379.26v-2-0.82h-19.24c0.3 1.32 0.89 5.19 1.1 6.53l18.1 0.24c0.04-0.39 0.04-3.56 0.04-3.95z" fill="#FF9B82" p-id="5641"></path><path d="M472 380.43h-18.48a67.28 67.28 0 0 1 0.69 10.94l17.71 0.66c0.02-2.89 0.08-8.72 0.08-11.6z" fill="#FF9A80" p-id="5642"></path><path d="M471.94 390.3v-1.23h-17.72v7.63l17.72-1.83c-0.01-0.87-0.01-3.65 0-4.57z" fill="#FF987F" p-id="5643"></path><path d="M471.93 393.06h-17.72v10.47l17.72-0.72c-0.02-2.66-0.01-7.09 0-9.75z" fill="#FF967D" p-id="5644"></path><path d="M471.9 401h-17.71v8.33l17.72-1.52c-0.02-1.73-0.01-5-0.01-6.81z" fill="#FF957B" p-id="5645"></path><path d="M471.89 406.36h-17.72v7.48l17.72 0.59c-0.01-1.43 0-6.69 0-8.07z" fill="#FF9379" p-id="5646"></path><path d="M471.87 413.61v-3.1h-17.71v11.55l17.72 0.84c-0.02-2.13-0.02-7.17-0.01-9.29z" fill="#FF9177" p-id="5647"></path><path d="M471.85 420h-17.72v6.91l17.72-0.48c-0.01-1.56 0-4.89 0-6.43z" fill="#FF9075" p-id="5648"></path><path d="M471.84 424.64h-17.72v6.48l17.72 0.06c-0.01-1.33-0.01-5.18 0-6.54z" fill="#FF8E74" p-id="5649"></path><path d="M471.83 428.62h-17.72v9.28l17.72-2.46c-0.01-3.61-0.01-5.21 0-6.82z" fill="#FF8C72" p-id="5650"></path><path d="M471.81 433.44H454.1v10l17.73-2.23c-0.02-1.37-0.02-6.45-0.02-7.77z" fill="#FF8B70" p-id="5651"></path><path d="M460.57 627.67a19.75 19.75 0 0 0 7.88-8.71c2.79-5.88 2.87-12.25 2.89-18.59q0-8.87 0.05-17.74 0-14.09 0.08-28.18 0-17.4 0.1-34.79l0.11-37.51 0.1-36.56v-8.18h-17.7v1.41l-0.05 18.1-0.03 19.35q0 10-0.06 20.09t-0.06 20.25l-0.06 19.83q0 9.42-0.05 18.83v58.77a38.27 38.27 0 0 1-1.77 11.79c-1.59 4.86-4.39 9.35-8.91 12l11.93-6.93z" fill="#FF896E" p-id="5652"></path><path d="M418.62 327.5c19.64 11.34 35.67 39.1 35.6 61.67l-0.64 225.77c-0.06 22.58-16.19 31.77-35.84 20.43s-35.68-39.1-35.61-61.68l0.64-225.77c0.07-22.58 16.23-31.77 35.85-20.42z" fill="#FFC2B6" p-id="5653"></path></svg>